G75*
G70*
%OFA0B0*%
%FSLAX24Y24*%
%IPPOS*%
%LPD*%
%AMOC8*
5,1,8,0,0,1.08239X$1,22.5*
%
%ADD10C,0.0000*%
%ADD11C,0.0520*%
%ADD12R,0.0315X0.0315*%
%ADD13R,0.0394X0.0433*%
%ADD14OC8,0.0520*%
%ADD15C,0.0515*%
%ADD16C,0.1122*%
%ADD17C,0.0600*%
%ADD18R,0.0276X0.0354*%
%ADD19R,0.0354X0.0276*%
%ADD20R,0.0740X0.0740*%
%ADD21C,0.0740*%
%ADD22OC8,0.0630*%
%ADD23C,0.0630*%
%ADD24C,0.0160*%
%ADD25C,0.0356*%
D10*
X000181Y000181D02*
X000181Y019866D01*
X019866Y019866D01*
X019866Y000181D01*
X000181Y000181D01*
D11*
X008421Y002181D02*
X008941Y002181D01*
X008941Y003181D02*
X008421Y003181D01*
X008421Y004181D02*
X008941Y004181D01*
X008941Y005181D02*
X008421Y005181D01*
X008421Y006181D02*
X008941Y006181D01*
X008941Y007181D02*
X008421Y007181D01*
X008421Y008181D02*
X008941Y008181D01*
X008941Y009181D02*
X008421Y009181D01*
X008421Y010181D02*
X008941Y010181D01*
X008941Y011181D02*
X008421Y011181D01*
X008421Y012181D02*
X008941Y012181D01*
X008941Y013181D02*
X008421Y013181D01*
X008421Y014181D02*
X008941Y014181D01*
X008941Y015181D02*
X008421Y015181D01*
X011421Y015181D02*
X011941Y015181D01*
X011941Y014181D02*
X011421Y014181D01*
X011421Y013181D02*
X011941Y013181D01*
X011941Y012181D02*
X011421Y012181D01*
X011421Y011181D02*
X011941Y011181D01*
X011941Y010181D02*
X011421Y010181D01*
X011421Y009181D02*
X011941Y009181D01*
X011941Y008181D02*
X011421Y008181D01*
X011421Y007181D02*
X011941Y007181D01*
X011941Y006181D02*
X011421Y006181D01*
X011421Y005181D02*
X011941Y005181D01*
X011941Y004181D02*
X011421Y004181D01*
X011421Y003181D02*
X011941Y003181D01*
X011941Y002181D02*
X011421Y002181D01*
D12*
X014386Y001681D03*
X014977Y001681D03*
X014977Y015181D03*
X014386Y015181D03*
X018386Y015181D03*
X018977Y015181D03*
D13*
X017016Y015181D03*
X016347Y015181D03*
X018347Y013181D03*
X019016Y013181D03*
X016516Y001681D03*
X015847Y001681D03*
D14*
X015181Y003181D03*
X015181Y006181D03*
X016181Y016681D03*
X013181Y016681D03*
D15*
X003351Y016081D03*
X002681Y016081D03*
X002351Y016701D03*
X001981Y016081D03*
X003041Y016701D03*
D16*
X004118Y018181D03*
X001244Y018181D03*
D17*
X006381Y017681D02*
X006981Y017681D01*
X006981Y016681D02*
X006381Y016681D01*
X006381Y018681D02*
X006981Y018681D01*
D18*
X008926Y019181D03*
X009437Y019181D03*
X012926Y010181D03*
X013437Y010181D03*
X006937Y003181D03*
X006426Y003181D03*
D19*
X013181Y014426D03*
X013181Y014937D03*
X011181Y017426D03*
X011181Y017937D03*
D20*
X013181Y018681D03*
X017181Y018681D03*
X019181Y009181D03*
X019181Y004181D03*
X006681Y008181D03*
X000681Y009181D03*
X000681Y004181D03*
X003181Y001181D03*
X000681Y014181D03*
D21*
X000681Y013181D03*
X000681Y012181D03*
X000681Y011181D03*
X000681Y008181D03*
X000681Y007181D03*
X000681Y006181D03*
X000681Y003181D03*
X000681Y002181D03*
X000681Y001181D03*
X004181Y001181D03*
X005181Y001181D03*
X006181Y001181D03*
X007181Y001181D03*
X006681Y006181D03*
X006681Y007181D03*
X015181Y018681D03*
X019181Y018681D03*
X019181Y008181D03*
X019181Y007181D03*
X019181Y006181D03*
X019181Y003181D03*
X019181Y002181D03*
X019181Y001181D03*
D22*
X014181Y007181D03*
X009681Y018181D03*
D23*
X009681Y017181D03*
X013181Y007181D03*
D24*
X011681Y007181D01*
X010681Y004681D02*
X010681Y009681D01*
X011181Y010181D01*
X011681Y010181D01*
X010681Y011181D01*
X010681Y014681D01*
X011181Y015181D01*
X011681Y015181D01*
X012937Y015181D01*
X013181Y014937D01*
X014142Y014937D01*
X014386Y015181D01*
X014977Y015181D02*
X016347Y015181D01*
X017016Y015181D02*
X017681Y015181D01*
X018386Y015181D01*
X018977Y015181D02*
X018977Y013886D01*
X019181Y013681D01*
X019181Y013347D01*
X019016Y013181D01*
X018347Y013181D02*
X011681Y013181D01*
X011681Y012181D02*
X015181Y012181D01*
X019181Y008181D01*
X019181Y007181D02*
X016181Y007181D01*
X015181Y006181D01*
X014681Y003681D02*
X014181Y003181D01*
X014386Y002977D01*
X014386Y001681D01*
X014977Y001681D02*
X015847Y001681D01*
X016516Y001681D02*
X018681Y001681D01*
X019181Y002181D01*
X019181Y001181D02*
X018681Y000681D01*
X012181Y000681D01*
X011681Y001181D01*
X011681Y002181D01*
X011681Y003181D02*
X014181Y003181D01*
X014681Y003681D02*
X017681Y003681D01*
X018181Y003181D01*
X019181Y003181D01*
X019181Y009181D02*
X018347Y010016D01*
X018347Y013181D01*
X014181Y010181D02*
X013437Y010181D01*
X012926Y010181D02*
X011681Y010181D01*
X010181Y010681D02*
X010181Y001181D01*
X009681Y002181D02*
X009681Y010181D01*
X008681Y011181D01*
X002681Y011181D01*
X000681Y009181D01*
X000681Y008181D02*
X002681Y010181D01*
X008681Y010181D01*
X008681Y009181D02*
X002681Y009181D01*
X000681Y007181D01*
X000681Y006181D02*
X001681Y005181D01*
X008681Y005181D01*
X008681Y004181D02*
X000681Y004181D01*
X000681Y003181D02*
X001181Y003181D01*
X001681Y002681D01*
X003681Y002681D01*
X004181Y002181D01*
X008681Y002181D01*
X008681Y001181D02*
X009681Y002181D01*
X008681Y001181D02*
X007181Y001181D01*
X006937Y003181D02*
X008681Y003181D01*
X006426Y003181D02*
X005181Y003181D01*
X004181Y001681D02*
X004181Y001181D01*
X004181Y001681D02*
X003681Y002181D01*
X002181Y002181D01*
X001181Y001181D01*
X000681Y001181D01*
X006681Y006181D02*
X008681Y006181D01*
X008681Y007181D02*
X007681Y008181D01*
X006681Y008181D01*
X010181Y010681D02*
X008681Y012181D01*
X001681Y012181D01*
X000681Y011181D01*
X000681Y012181D02*
X001681Y013181D01*
X008681Y013181D01*
X008681Y014181D02*
X001681Y014181D01*
X000681Y013181D01*
X000681Y014181D02*
X001681Y015181D01*
X008681Y015181D01*
X009681Y017181D02*
X009926Y017426D01*
X011181Y017426D01*
X012437Y017426D01*
X013181Y016681D01*
X011681Y015181D01*
X011681Y014181D02*
X012937Y014181D01*
X013181Y014426D01*
X011181Y017937D02*
X009926Y017937D01*
X009681Y018181D01*
X009437Y018426D01*
X009437Y019181D01*
X008926Y019181D02*
X008426Y018681D01*
X006681Y018681D01*
D25*
X001681Y015181D03*
X010681Y004681D03*
X010181Y001181D03*
X005181Y003181D03*
X014181Y010181D03*
X017681Y015181D03*
M02*
