G75*
G70*
%OFA0B0*%
%FSLAX24Y24*%
%IPPOS*%
%LPD*%
%AMOC8*
5,1,8,0,0,1.08239X$1,22.5*
%
%ADD10C,0.0000*%
%ADD11C,0.0560*%
%ADD12R,0.0355X0.0355*%
%ADD13R,0.0434X0.0473*%
%ADD14OC8,0.0560*%
%ADD15C,0.0555*%
%ADD16C,0.1162*%
%ADD17C,0.0640*%
%ADD18R,0.0316X0.0394*%
%ADD19R,0.0394X0.0316*%
%ADD20R,0.0780X0.0780*%
%ADD21C,0.0780*%
%ADD22OC8,0.0670*%
%ADD23C,0.0670*%
D10*
X000181Y000181D02*
X000181Y019866D01*
X019866Y019866D01*
X019866Y000181D01*
X000181Y000181D01*
D11*
X008421Y002181D02*
X008941Y002181D01*
X008941Y003181D02*
X008421Y003181D01*
X008421Y004181D02*
X008941Y004181D01*
X008941Y005181D02*
X008421Y005181D01*
X008421Y006181D02*
X008941Y006181D01*
X008941Y007181D02*
X008421Y007181D01*
X008421Y008181D02*
X008941Y008181D01*
X008941Y009181D02*
X008421Y009181D01*
X008421Y010181D02*
X008941Y010181D01*
X008941Y011181D02*
X008421Y011181D01*
X008421Y012181D02*
X008941Y012181D01*
X008941Y013181D02*
X008421Y013181D01*
X008421Y014181D02*
X008941Y014181D01*
X008941Y015181D02*
X008421Y015181D01*
X011421Y015181D02*
X011941Y015181D01*
X011941Y014181D02*
X011421Y014181D01*
X011421Y013181D02*
X011941Y013181D01*
X011941Y012181D02*
X011421Y012181D01*
X011421Y011181D02*
X011941Y011181D01*
X011941Y010181D02*
X011421Y010181D01*
X011421Y009181D02*
X011941Y009181D01*
X011941Y008181D02*
X011421Y008181D01*
X011421Y007181D02*
X011941Y007181D01*
X011941Y006181D02*
X011421Y006181D01*
X011421Y005181D02*
X011941Y005181D01*
X011941Y004181D02*
X011421Y004181D01*
X011421Y003181D02*
X011941Y003181D01*
X011941Y002181D02*
X011421Y002181D01*
D12*
X014386Y001681D03*
X014977Y001681D03*
X014977Y015181D03*
X014386Y015181D03*
X018386Y015181D03*
X018977Y015181D03*
D13*
X017016Y015181D03*
X016347Y015181D03*
X018347Y013181D03*
X019016Y013181D03*
X016516Y001681D03*
X015847Y001681D03*
D14*
X015181Y003181D03*
X015181Y006181D03*
X016181Y016681D03*
X013181Y016681D03*
D15*
X003351Y016081D03*
X002681Y016081D03*
X002351Y016701D03*
X001981Y016081D03*
X003041Y016701D03*
D16*
X004118Y018181D03*
X001244Y018181D03*
D17*
X006381Y017681D02*
X006981Y017681D01*
X006981Y016681D02*
X006381Y016681D01*
X006381Y018681D02*
X006981Y018681D01*
D18*
X008926Y019181D03*
X009437Y019181D03*
X012926Y010181D03*
X013437Y010181D03*
X006937Y003181D03*
X006426Y003181D03*
D19*
X013181Y014426D03*
X013181Y014937D03*
X011181Y017426D03*
X011181Y017937D03*
D20*
X013181Y018681D03*
X017181Y018681D03*
X019181Y009181D03*
X019181Y004181D03*
X006681Y008181D03*
X000681Y009181D03*
X000681Y004181D03*
X003181Y001181D03*
X000681Y014181D03*
D21*
X000681Y013181D03*
X000681Y012181D03*
X000681Y011181D03*
X000681Y008181D03*
X000681Y007181D03*
X000681Y006181D03*
X000681Y003181D03*
X000681Y002181D03*
X000681Y001181D03*
X004181Y001181D03*
X005181Y001181D03*
X006181Y001181D03*
X007181Y001181D03*
X006681Y006181D03*
X006681Y007181D03*
X015181Y018681D03*
X019181Y018681D03*
X019181Y008181D03*
X019181Y007181D03*
X019181Y006181D03*
X019181Y003181D03*
X019181Y002181D03*
X019181Y001181D03*
D22*
X014181Y007181D03*
X009681Y018181D03*
D23*
X009681Y017181D03*
X013181Y007181D03*
M02*
