%
M48
M72
T01C0.0236
T02C0.0315
T03C0.0320
T04C0.0400
T05C0.0748
%
T01
X5181Y3181
X10181Y1181
X10681Y4681
X14181Y10181
X17681Y15181
X1681Y15181
T02
X2351Y16701
X2681Y16081
X3351Y16081
X3041Y16701
X1981Y16081
T03
X8681Y15181
X8681Y14181
X8681Y13181
X8681Y12181
X8681Y11181
X8681Y10181
X8681Y9181
X8681Y8181
X8681Y7181
X8681Y6181
X8681Y5181
X8681Y4181
X8681Y3181
X8681Y2181
X11681Y2181
X11681Y3181
X11681Y4181
X11681Y5181
X11681Y6181
X11681Y7181
X11681Y8181
X11681Y9181
X11681Y10181
X11681Y11181
X11681Y12181
X11681Y13181
X11681Y14181
X11681Y15181
X13181Y16681
X16181Y16681
X9681Y17181
X9681Y18181
X13181Y7181
X14181Y7181
X15181Y6181
X15181Y3181
T04
X681Y1181
X681Y2181
X681Y3181
X681Y4181
X681Y6181
X681Y7181
X681Y8181
X681Y9181
X681Y11181
X681Y12181
X681Y13181
X681Y14181
X6681Y16681
X6681Y17681
X6681Y18681
X13181Y18681
X15181Y18681
X17181Y18681
X19181Y18681
X19181Y9181
X19181Y8181
X19181Y7181
X19181Y6181
X19181Y4181
X19181Y3181
X19181Y2181
X19181Y1181
X7181Y1181
X6181Y1181
X5181Y1181
X4181Y1181
X3181Y1181
X6681Y6181
X6681Y7181
X6681Y8181
T05
X1244Y18181
X4118Y18181
M30
