G75*
G70*
%OFA0B0*%
%FSLAX24Y24*%
%IPPOS*%
%LPD*%
%AMOC8*
5,1,8,0,0,1.08239X$1,22.5*
%
%ADD10C,0.0000*%
%ADD11C,0.0030*%
%ADD12C,0.0060*%
%ADD13C,0.0050*%
%ADD14R,0.0098X0.0089*%
%ADD15C,0.0040*%
%ADD16R,0.0200X0.0150*%
%ADD17R,0.0150X0.0200*%
%ADD18C,0.0200*%
%ADD19R,0.0500X0.0750*%
%ADD20R,0.0300X0.0700*%
%ADD21R,0.0500X0.0300*%
%ADD22C,0.0080*%
D10*
X000181Y000181D02*
X000181Y019866D01*
X019866Y019866D01*
X019866Y000181D01*
X000181Y000181D01*
D11*
X001446Y001245D02*
X001495Y001196D01*
X001592Y001196D01*
X001640Y001245D01*
X001640Y001293D01*
X001592Y001342D01*
X001543Y001342D01*
X001592Y001342D02*
X001640Y001390D01*
X001640Y001438D01*
X001592Y001487D01*
X001495Y001487D01*
X001446Y001438D01*
X001741Y001245D02*
X001789Y001245D01*
X001789Y001196D01*
X001741Y001196D01*
X001741Y001245D01*
X001888Y001245D02*
X001937Y001196D01*
X002034Y001196D01*
X002082Y001245D01*
X002082Y001293D01*
X002034Y001342D01*
X001985Y001342D01*
X002034Y001342D02*
X002082Y001390D01*
X002082Y001438D01*
X002034Y001487D01*
X001937Y001487D01*
X001888Y001438D01*
X002183Y001487D02*
X002183Y001293D01*
X002280Y001196D01*
X002376Y001293D01*
X002376Y001487D01*
X002830Y001876D02*
X002830Y002167D01*
X002975Y002167D01*
X003024Y002118D01*
X003024Y002022D01*
X002975Y001973D01*
X002830Y001973D01*
X003125Y001876D02*
X003222Y001876D01*
X003173Y001876D02*
X003173Y002167D01*
X003125Y002167D02*
X003222Y002167D01*
X003321Y002118D02*
X003321Y001925D01*
X003370Y001876D01*
X003466Y001876D01*
X003515Y001925D01*
X003616Y001973D02*
X003809Y002167D01*
X003911Y002167D02*
X004007Y002167D01*
X003959Y002167D02*
X003959Y001876D01*
X003911Y001876D02*
X004007Y001876D01*
X004204Y001876D02*
X004204Y002167D01*
X004107Y002167D02*
X004301Y002167D01*
X004402Y002118D02*
X004450Y002167D01*
X004547Y002167D01*
X004595Y002118D01*
X004595Y002070D01*
X004547Y002022D01*
X004595Y001973D01*
X004595Y001925D01*
X004547Y001876D01*
X004450Y001876D01*
X004402Y001925D01*
X004498Y002022D02*
X004547Y002022D01*
X003809Y001876D02*
X003664Y002022D01*
X003616Y002167D02*
X003616Y001876D01*
X003515Y002118D02*
X003466Y002167D01*
X003370Y002167D01*
X003321Y002118D01*
X002229Y002245D02*
X002229Y002438D01*
X002181Y002487D01*
X002036Y002487D01*
X002036Y002196D01*
X002181Y002196D01*
X002229Y002245D01*
X001935Y002196D02*
X001935Y002487D01*
X001741Y002487D02*
X001935Y002196D01*
X001741Y002196D02*
X001741Y002487D01*
X001640Y002438D02*
X001592Y002487D01*
X001495Y002487D01*
X001446Y002438D01*
X001446Y002245D01*
X001495Y002196D01*
X001592Y002196D01*
X001640Y002245D01*
X001640Y002342D01*
X001543Y002342D01*
X001592Y003196D02*
X001446Y003196D01*
X001446Y003487D01*
X001592Y003487D01*
X001640Y003438D01*
X001640Y003390D01*
X001592Y003342D01*
X001446Y003342D01*
X001592Y003342D02*
X001640Y003293D01*
X001640Y003245D01*
X001592Y003196D01*
X001741Y003245D02*
X001789Y003196D01*
X001886Y003196D01*
X001935Y003245D01*
X001935Y003342D01*
X001886Y003390D01*
X001838Y003390D01*
X001741Y003342D01*
X001741Y003487D01*
X001935Y003487D01*
X001886Y004196D02*
X001886Y004487D01*
X001741Y004342D01*
X001935Y004342D01*
X001640Y004342D02*
X001446Y004342D01*
X001446Y004390D02*
X001543Y004487D01*
X001640Y004390D01*
X001640Y004196D01*
X001446Y004196D02*
X001446Y004390D01*
X001446Y006196D02*
X001592Y006196D01*
X001640Y006245D01*
X001640Y006293D01*
X001592Y006342D01*
X001446Y006342D01*
X001446Y006487D02*
X001446Y006196D01*
X001592Y006342D02*
X001640Y006390D01*
X001640Y006438D01*
X001592Y006487D01*
X001446Y006487D01*
X001741Y006342D02*
X001935Y006342D01*
X001886Y006487D02*
X001886Y006196D01*
X001741Y006342D02*
X001886Y006487D01*
X001886Y007196D02*
X001789Y007196D01*
X001741Y007245D01*
X001640Y007245D02*
X001592Y007196D01*
X001446Y007196D01*
X001446Y007487D01*
X001592Y007487D01*
X001640Y007438D01*
X001640Y007390D01*
X001592Y007342D01*
X001446Y007342D01*
X001592Y007342D02*
X001640Y007293D01*
X001640Y007245D01*
X001741Y007438D02*
X001789Y007487D01*
X001886Y007487D01*
X001935Y007438D01*
X001935Y007390D01*
X001886Y007342D01*
X001935Y007293D01*
X001935Y007245D01*
X001886Y007196D01*
X001886Y007342D02*
X001838Y007342D01*
X001935Y008196D02*
X001741Y008196D01*
X001935Y008390D01*
X001935Y008438D01*
X001886Y008487D01*
X001789Y008487D01*
X001741Y008438D01*
X001640Y008438D02*
X001640Y008390D01*
X001592Y008342D01*
X001446Y008342D01*
X001446Y008487D02*
X001446Y008196D01*
X001592Y008196D01*
X001640Y008245D01*
X001640Y008293D01*
X001592Y008342D01*
X001640Y008438D02*
X001592Y008487D01*
X001446Y008487D01*
X001446Y009196D02*
X001592Y009196D01*
X001640Y009245D01*
X001640Y009293D01*
X001592Y009342D01*
X001446Y009342D01*
X001446Y009487D02*
X001446Y009196D01*
X001592Y009342D02*
X001640Y009390D01*
X001640Y009438D01*
X001592Y009487D01*
X001446Y009487D01*
X001741Y009390D02*
X001838Y009487D01*
X001838Y009196D01*
X001741Y009196D02*
X001935Y009196D01*
X001886Y011196D02*
X001789Y011196D01*
X001741Y011245D01*
X001935Y011438D01*
X001935Y011245D01*
X001886Y011196D01*
X001741Y011245D02*
X001741Y011438D01*
X001789Y011487D01*
X001886Y011487D01*
X001935Y011438D01*
X001640Y011438D02*
X001640Y011390D01*
X001592Y011342D01*
X001446Y011342D01*
X001446Y011487D02*
X001446Y011196D01*
X001592Y011196D01*
X001640Y011245D01*
X001640Y011293D01*
X001592Y011342D01*
X001640Y011438D02*
X001592Y011487D01*
X001446Y011487D01*
X001446Y012196D02*
X001446Y012390D01*
X001543Y012487D01*
X001640Y012390D01*
X001640Y012196D01*
X001741Y012196D02*
X001935Y012196D01*
X001838Y012196D02*
X001838Y012487D01*
X001741Y012390D01*
X001640Y012342D02*
X001446Y012342D01*
X001446Y013196D02*
X001446Y013390D01*
X001543Y013487D01*
X001640Y013390D01*
X001640Y013196D01*
X001741Y013245D02*
X001935Y013438D01*
X001935Y013245D01*
X001886Y013196D01*
X001789Y013196D01*
X001741Y013245D01*
X001741Y013438D01*
X001789Y013487D01*
X001886Y013487D01*
X001935Y013438D01*
X001640Y013342D02*
X001446Y013342D01*
X001446Y014196D02*
X001446Y014487D01*
X001543Y014390D01*
X001640Y014487D01*
X001640Y014196D01*
X001741Y014245D02*
X001789Y014196D01*
X001886Y014196D01*
X001935Y014245D01*
X002036Y014196D02*
X002036Y014487D01*
X001935Y014438D02*
X001886Y014487D01*
X001789Y014487D01*
X001741Y014438D01*
X001741Y014245D01*
X002036Y014196D02*
X002229Y014196D01*
X002330Y014196D02*
X002330Y014487D01*
X002475Y014487D01*
X002524Y014438D01*
X002524Y014342D01*
X002475Y014293D01*
X002330Y014293D01*
X002427Y014293D02*
X002524Y014196D01*
X003161Y011667D02*
X003257Y011570D01*
X003354Y011667D01*
X003354Y011376D01*
X003455Y011376D02*
X003455Y011570D01*
X003552Y011667D01*
X003649Y011570D01*
X003649Y011376D01*
X003649Y011522D02*
X003455Y011522D01*
X003750Y011667D02*
X003943Y011667D01*
X003847Y011667D02*
X003847Y011376D01*
X004141Y011376D02*
X004141Y011667D01*
X004045Y011667D02*
X004238Y011667D01*
X004634Y011667D02*
X004634Y011376D01*
X004827Y011376D02*
X004827Y011667D01*
X004731Y011570D01*
X004634Y011667D01*
X004929Y011618D02*
X004929Y011425D01*
X004977Y011376D01*
X005074Y011376D01*
X005122Y011425D01*
X005122Y011618D01*
X005074Y011667D01*
X004977Y011667D01*
X004929Y011618D01*
X005223Y011667D02*
X005223Y011376D01*
X005417Y011376D02*
X005417Y011667D01*
X005518Y011618D02*
X005518Y011425D01*
X005566Y011376D01*
X005663Y011376D01*
X005711Y011425D01*
X005711Y011522D01*
X005615Y011522D01*
X005711Y011618D02*
X005663Y011667D01*
X005566Y011667D01*
X005518Y011618D01*
X005417Y011376D02*
X005223Y011667D01*
X005812Y011667D02*
X005812Y011376D01*
X006006Y011376D01*
X006107Y011425D02*
X006155Y011376D01*
X006252Y011376D01*
X006301Y011425D01*
X006301Y011618D01*
X006252Y011667D01*
X006155Y011667D01*
X006107Y011618D01*
X006107Y011425D01*
X005909Y011522D02*
X005812Y011522D01*
X005812Y011667D02*
X006006Y011667D01*
X006402Y011667D02*
X006402Y011376D01*
X006595Y011376D02*
X006595Y011667D01*
X006402Y011667D02*
X006595Y011376D01*
X006547Y010667D02*
X006595Y010618D01*
X006595Y010570D01*
X006547Y010522D01*
X006595Y010473D01*
X006595Y010425D01*
X006547Y010376D01*
X006450Y010376D01*
X006402Y010425D01*
X006301Y010425D02*
X006252Y010376D01*
X006155Y010376D01*
X006107Y010425D01*
X006204Y010522D02*
X006252Y010522D01*
X006301Y010473D01*
X006301Y010425D01*
X006252Y010522D02*
X006301Y010570D01*
X006301Y010618D01*
X006252Y010667D01*
X006155Y010667D01*
X006107Y010618D01*
X006006Y010522D02*
X005812Y010522D01*
X005958Y010667D01*
X005958Y010376D01*
X005711Y010376D02*
X005518Y010376D01*
X005518Y010667D01*
X005711Y010667D01*
X005615Y010522D02*
X005518Y010522D01*
X005417Y010667D02*
X005417Y010376D01*
X005223Y010376D02*
X005223Y010667D01*
X005320Y010570D01*
X005417Y010667D01*
X006402Y010618D02*
X006450Y010667D01*
X006547Y010667D01*
X006547Y010522D02*
X006499Y010522D01*
X006595Y009667D02*
X006402Y009667D01*
X006402Y009522D01*
X006499Y009570D01*
X006547Y009570D01*
X006595Y009522D01*
X006595Y009425D01*
X006547Y009376D01*
X006450Y009376D01*
X006402Y009425D01*
X006301Y009376D02*
X006107Y009376D01*
X006204Y009376D02*
X006204Y009667D01*
X006107Y009570D01*
X006006Y009618D02*
X006006Y009425D01*
X005958Y009376D01*
X005861Y009376D01*
X005812Y009425D01*
X006006Y009618D01*
X005958Y009667D01*
X005861Y009667D01*
X005812Y009618D01*
X005812Y009425D01*
X005711Y009376D02*
X005518Y009376D01*
X005711Y009570D01*
X005711Y009618D01*
X005663Y009667D01*
X005566Y009667D01*
X005518Y009618D01*
X005793Y007595D02*
X005986Y007402D01*
X005986Y007595D01*
X005793Y007595D02*
X005793Y007402D01*
X005841Y007301D02*
X005841Y007107D01*
X005986Y007107D02*
X005696Y007107D01*
X005696Y007006D02*
X005986Y007006D01*
X005986Y006812D02*
X005696Y006812D01*
X005793Y006909D01*
X005696Y007006D01*
X005696Y007301D02*
X005986Y007301D01*
X005938Y006711D02*
X005986Y006663D01*
X005986Y006566D01*
X005938Y006518D01*
X005890Y006518D01*
X005841Y006566D01*
X005841Y006663D01*
X005890Y006711D01*
X005938Y006711D01*
X005841Y006663D02*
X005793Y006711D01*
X005745Y006711D01*
X005696Y006663D01*
X005696Y006566D01*
X005745Y006518D01*
X005793Y006518D01*
X005841Y006566D01*
X006145Y003787D02*
X006242Y003787D01*
X006290Y003738D01*
X006096Y003545D01*
X006145Y003496D01*
X006242Y003496D01*
X006290Y003545D01*
X006290Y003738D01*
X006145Y003787D02*
X006096Y003738D01*
X006096Y003545D01*
X006391Y003545D02*
X006439Y003545D01*
X006439Y003496D01*
X006391Y003496D01*
X006391Y003545D01*
X006538Y003496D02*
X006732Y003496D01*
X006635Y003496D02*
X006635Y003787D01*
X006538Y003690D01*
X006833Y003690D02*
X006833Y003545D01*
X006881Y003496D01*
X007026Y003496D01*
X007026Y003690D01*
X007128Y003642D02*
X007224Y003642D01*
X007128Y003787D02*
X007321Y003787D01*
X007128Y003787D02*
X007128Y003496D01*
X006886Y002787D02*
X006789Y002787D01*
X006741Y002738D01*
X006741Y002690D01*
X006789Y002642D01*
X006935Y002642D01*
X006935Y002738D02*
X006886Y002787D01*
X006935Y002738D02*
X006935Y002545D01*
X006886Y002496D01*
X006789Y002496D01*
X006741Y002545D01*
X006640Y002545D02*
X006592Y002496D01*
X006495Y002496D01*
X006446Y002545D01*
X006446Y002738D01*
X006495Y002787D01*
X006592Y002787D01*
X006640Y002738D01*
X013046Y005696D02*
X013240Y005696D01*
X013143Y005696D02*
X013143Y005987D01*
X013046Y005890D01*
X013341Y005938D02*
X013341Y005745D01*
X013535Y005938D01*
X013535Y005745D01*
X013486Y005696D01*
X013389Y005696D01*
X013341Y005745D01*
X013341Y005938D02*
X013389Y005987D01*
X013486Y005987D01*
X013535Y005938D01*
X013636Y005890D02*
X013636Y005745D01*
X013684Y005696D01*
X013829Y005696D01*
X013829Y005890D01*
X013930Y005842D02*
X014027Y005842D01*
X013930Y005987D02*
X014124Y005987D01*
X013930Y005987D02*
X013930Y005696D01*
X015846Y005187D02*
X015846Y004896D01*
X015846Y004993D02*
X015992Y004993D01*
X016040Y005042D01*
X016040Y005138D01*
X015992Y005187D01*
X015846Y005187D01*
X015943Y004993D02*
X016040Y004896D01*
X016141Y004945D02*
X016189Y004896D01*
X016286Y004896D01*
X016335Y004945D01*
X016335Y004993D01*
X016286Y005042D01*
X016238Y005042D01*
X016286Y005042D02*
X016335Y005090D01*
X016335Y005138D01*
X016286Y005187D01*
X016189Y005187D01*
X016141Y005138D01*
X017712Y006976D02*
X017858Y006976D01*
X017906Y007025D01*
X017906Y007073D01*
X017858Y007122D01*
X017712Y007122D01*
X017712Y007267D02*
X017712Y006976D01*
X017858Y007122D02*
X017906Y007170D01*
X017906Y007218D01*
X017858Y007267D01*
X017712Y007267D01*
X018007Y007170D02*
X018104Y007267D01*
X018104Y006976D01*
X018007Y006976D02*
X018201Y006976D01*
X018302Y007025D02*
X018350Y006976D01*
X018447Y006976D01*
X018495Y007025D01*
X018495Y007073D01*
X018447Y007122D01*
X018399Y007122D01*
X018447Y007122D02*
X018495Y007170D01*
X018495Y007218D01*
X018447Y007267D01*
X018350Y007267D01*
X018302Y007218D01*
X018201Y007976D02*
X018007Y007976D01*
X018104Y007976D02*
X018104Y008267D01*
X018007Y008170D01*
X017906Y008170D02*
X017906Y008218D01*
X017858Y008267D01*
X017712Y008267D01*
X017712Y007976D01*
X017858Y007976D01*
X017906Y008025D01*
X017906Y008073D01*
X017858Y008122D01*
X017712Y008122D01*
X017858Y008122D02*
X017906Y008170D01*
X018302Y008122D02*
X018495Y008122D01*
X018447Y008267D02*
X018447Y007976D01*
X018302Y008122D02*
X018447Y008267D01*
X018447Y008976D02*
X018350Y008976D01*
X018302Y009025D01*
X018302Y009122D02*
X018399Y009170D01*
X018447Y009170D01*
X018495Y009122D01*
X018495Y009025D01*
X018447Y008976D01*
X018302Y009122D02*
X018302Y009267D01*
X018495Y009267D01*
X018104Y009267D02*
X018104Y008976D01*
X018007Y008976D02*
X018201Y008976D01*
X018007Y009170D02*
X018104Y009267D01*
X017906Y009218D02*
X017906Y009170D01*
X017858Y009122D01*
X017712Y009122D01*
X017712Y009267D02*
X017712Y008976D01*
X017858Y008976D01*
X017906Y009025D01*
X017906Y009073D01*
X017858Y009122D01*
X017906Y009218D02*
X017858Y009267D01*
X017712Y009267D01*
X018007Y006267D02*
X018152Y006267D01*
X018201Y006218D01*
X018201Y006170D01*
X018152Y006122D01*
X018007Y006122D01*
X018007Y006267D02*
X018007Y005976D01*
X018152Y005976D01*
X018201Y006025D01*
X018201Y006073D01*
X018152Y006122D01*
X018302Y006170D02*
X018302Y006218D01*
X018350Y006267D01*
X018447Y006267D01*
X018495Y006218D01*
X018495Y006025D01*
X018447Y005976D01*
X018350Y005976D01*
X018302Y006025D01*
X018350Y006122D02*
X018495Y006122D01*
X018350Y006122D02*
X018302Y006170D01*
X018350Y004267D02*
X018447Y004267D01*
X018495Y004218D01*
X018495Y004170D01*
X018447Y004122D01*
X018350Y004122D01*
X018302Y004170D01*
X018302Y004218D01*
X018350Y004267D01*
X018350Y004122D02*
X018302Y004073D01*
X018302Y004025D01*
X018350Y003976D01*
X018447Y003976D01*
X018495Y004025D01*
X018495Y004073D01*
X018447Y004122D01*
X018201Y004170D02*
X018201Y004218D01*
X018152Y004267D01*
X018007Y004267D01*
X018007Y003976D01*
X018152Y003976D01*
X018201Y004025D01*
X018201Y004073D01*
X018152Y004122D01*
X018007Y004122D01*
X018152Y004122D02*
X018201Y004170D01*
X018152Y003267D02*
X018201Y003218D01*
X018201Y003170D01*
X018152Y003122D01*
X018007Y003122D01*
X018007Y003267D02*
X018007Y002976D01*
X018152Y002976D01*
X018201Y003025D01*
X018201Y003073D01*
X018152Y003122D01*
X018152Y003267D02*
X018007Y003267D01*
X018302Y003267D02*
X018495Y003267D01*
X018495Y003218D01*
X018302Y003025D01*
X018302Y002976D01*
X018302Y002267D02*
X018447Y002267D01*
X018495Y002218D01*
X018495Y002025D01*
X018447Y001976D01*
X018302Y001976D01*
X018302Y002267D01*
X018201Y002267D02*
X018201Y001976D01*
X018007Y002267D01*
X018007Y001976D01*
X017906Y002025D02*
X017906Y002122D01*
X017809Y002122D01*
X017712Y002218D02*
X017712Y002025D01*
X017761Y001976D01*
X017858Y001976D01*
X017906Y002025D01*
X017906Y002218D02*
X017858Y002267D01*
X017761Y002267D01*
X017712Y002218D01*
X018007Y001267D02*
X018007Y001122D01*
X018104Y001170D01*
X018152Y001170D01*
X018201Y001122D01*
X018201Y001025D01*
X018152Y000976D01*
X018055Y000976D01*
X018007Y001025D01*
X018007Y001267D02*
X018201Y001267D01*
X018302Y001267D02*
X018302Y001073D01*
X018399Y000976D01*
X018495Y001073D01*
X018495Y001267D01*
X016445Y001068D02*
X016445Y000875D01*
X016397Y000826D01*
X016300Y000826D01*
X016252Y000875D01*
X016445Y001068D01*
X016397Y001117D01*
X016300Y001117D01*
X016252Y001068D01*
X016252Y000875D01*
X016151Y000875D02*
X016102Y000826D01*
X016005Y000826D01*
X015957Y000875D01*
X015856Y000875D02*
X015808Y000826D01*
X015711Y000826D01*
X015662Y000875D01*
X015759Y000972D02*
X015808Y000972D01*
X015856Y000923D01*
X015856Y000875D01*
X015808Y000972D02*
X015856Y001020D01*
X015856Y001068D01*
X015808Y001117D01*
X015711Y001117D01*
X015662Y001068D01*
X015957Y001068D02*
X016005Y001117D01*
X016102Y001117D01*
X016151Y001068D01*
X016151Y001020D01*
X016102Y000972D01*
X016151Y000923D01*
X016151Y000875D01*
X016102Y000972D02*
X016054Y000972D01*
X015174Y001096D02*
X014980Y001096D01*
X015174Y001290D01*
X015174Y001338D01*
X015125Y001387D01*
X015029Y001387D01*
X014980Y001338D01*
X014879Y001338D02*
X014879Y001145D01*
X014831Y001096D01*
X014686Y001096D01*
X014686Y001387D01*
X014831Y001387D01*
X014879Y001338D01*
X014585Y001387D02*
X014391Y001387D01*
X014391Y001096D01*
X014585Y001096D01*
X014488Y001242D02*
X014391Y001242D01*
X014290Y001096D02*
X014096Y001096D01*
X014096Y001387D01*
X015896Y002196D02*
X015896Y002487D01*
X016042Y002487D01*
X016090Y002438D01*
X016090Y002342D01*
X016042Y002293D01*
X015896Y002293D01*
X015993Y002293D02*
X016090Y002196D01*
X016191Y002196D02*
X016385Y002390D01*
X016385Y002438D01*
X016336Y002487D01*
X016239Y002487D01*
X016191Y002438D01*
X016191Y002196D02*
X016385Y002196D01*
X013836Y008446D02*
X013739Y008446D01*
X013691Y008495D01*
X013691Y008592D01*
X013836Y008592D01*
X013885Y008543D01*
X013885Y008495D01*
X013836Y008446D01*
X013691Y008592D02*
X013788Y008688D01*
X013885Y008737D01*
X013590Y008688D02*
X013542Y008737D01*
X013445Y008737D01*
X013396Y008688D01*
X013396Y008495D01*
X013445Y008446D01*
X013542Y008446D01*
X013590Y008495D01*
X013628Y009496D02*
X013628Y009787D01*
X013821Y009787D01*
X013724Y009642D02*
X013628Y009642D01*
X013526Y009690D02*
X013526Y009496D01*
X013381Y009496D01*
X013333Y009545D01*
X013333Y009690D01*
X013232Y009496D02*
X013038Y009496D01*
X013135Y009496D02*
X013135Y009787D01*
X013038Y009690D01*
X012939Y009545D02*
X012939Y009496D01*
X012891Y009496D01*
X012891Y009545D01*
X012939Y009545D01*
X012790Y009545D02*
X012742Y009496D01*
X012645Y009496D01*
X012596Y009545D01*
X012790Y009738D01*
X012790Y009545D01*
X012790Y009738D02*
X012742Y009787D01*
X012645Y009787D01*
X012596Y009738D01*
X012596Y009545D01*
X012905Y010576D02*
X013002Y010576D01*
X013051Y010625D01*
X013152Y010625D02*
X013200Y010576D01*
X013297Y010576D01*
X013345Y010625D01*
X013345Y010673D01*
X013297Y010722D01*
X013249Y010722D01*
X013297Y010722D02*
X013345Y010770D01*
X013345Y010818D01*
X013297Y010867D01*
X013200Y010867D01*
X013152Y010818D01*
X013051Y010818D02*
X013002Y010867D01*
X012905Y010867D01*
X012857Y010818D01*
X012857Y010625D01*
X012905Y010576D01*
X013645Y013996D02*
X013596Y014045D01*
X013790Y014238D01*
X013790Y014045D01*
X013742Y013996D01*
X013645Y013996D01*
X013596Y014045D02*
X013596Y014238D01*
X013645Y014287D01*
X013742Y014287D01*
X013790Y014238D01*
X013891Y014045D02*
X013939Y014045D01*
X013939Y013996D01*
X013891Y013996D01*
X013891Y014045D01*
X014038Y013996D02*
X014232Y013996D01*
X014135Y013996D02*
X014135Y014287D01*
X014038Y014190D01*
X014333Y014190D02*
X014333Y014045D01*
X014381Y013996D01*
X014526Y013996D01*
X014526Y014190D01*
X014628Y014142D02*
X014724Y014142D01*
X014628Y014287D02*
X014628Y013996D01*
X014628Y014287D02*
X014821Y014287D01*
X014036Y014496D02*
X014036Y014787D01*
X013891Y014642D01*
X014085Y014642D01*
X013790Y014738D02*
X013742Y014787D01*
X013645Y014787D01*
X013596Y014738D01*
X013596Y014545D01*
X013645Y014496D01*
X013742Y014496D01*
X013790Y014545D01*
X014296Y015596D02*
X014490Y015596D01*
X014591Y015596D02*
X014591Y015887D01*
X014785Y015887D01*
X014886Y015887D02*
X015031Y015887D01*
X015079Y015838D01*
X015079Y015645D01*
X015031Y015596D01*
X014886Y015596D01*
X014886Y015887D01*
X014688Y015742D02*
X014591Y015742D01*
X014591Y015596D02*
X014785Y015596D01*
X015180Y015596D02*
X015374Y015596D01*
X015277Y015596D02*
X015277Y015887D01*
X015180Y015790D01*
X014296Y015887D02*
X014296Y015596D01*
X014346Y017296D02*
X014346Y017587D01*
X014492Y017587D01*
X014540Y017538D01*
X014540Y017442D01*
X014492Y017393D01*
X014346Y017393D01*
X014443Y017393D02*
X014540Y017296D01*
X014641Y017345D02*
X014689Y017296D01*
X014786Y017296D01*
X014835Y017345D01*
X014835Y017442D01*
X014786Y017490D01*
X014738Y017490D01*
X014641Y017442D01*
X014641Y017587D01*
X014835Y017587D01*
X014772Y017696D02*
X014772Y017987D01*
X014868Y017987D02*
X014675Y017987D01*
X014574Y017987D02*
X014380Y017987D01*
X014380Y017696D01*
X014574Y017696D01*
X014477Y017842D02*
X014380Y017842D01*
X014279Y017793D02*
X014279Y017745D01*
X014231Y017696D01*
X014134Y017696D01*
X014086Y017745D01*
X014134Y017842D02*
X014231Y017842D01*
X014279Y017793D01*
X014279Y017938D02*
X014231Y017987D01*
X014134Y017987D01*
X014086Y017938D01*
X014086Y017890D01*
X014134Y017842D01*
X013985Y017987D02*
X013791Y017987D01*
X013791Y017696D01*
X013985Y017696D01*
X013888Y017842D02*
X013791Y017842D01*
X013690Y017842D02*
X013642Y017793D01*
X013496Y017793D01*
X013496Y017696D02*
X013496Y017987D01*
X013642Y017987D01*
X013690Y017938D01*
X013690Y017842D01*
X013593Y017793D02*
X013690Y017696D01*
X012286Y017755D02*
X012286Y017901D01*
X012093Y017901D01*
X012141Y018002D02*
X012141Y018099D01*
X011996Y018195D02*
X011996Y018002D01*
X012286Y018002D01*
X012286Y017755D02*
X012238Y017707D01*
X012093Y017707D01*
X012286Y017606D02*
X012286Y017412D01*
X012286Y017509D02*
X011996Y017509D01*
X012093Y017412D01*
X012238Y017314D02*
X012286Y017314D01*
X012286Y017265D01*
X012238Y017265D01*
X012238Y017314D01*
X012238Y017164D02*
X012045Y017164D01*
X012238Y016971D01*
X012286Y017019D01*
X012286Y017116D01*
X012238Y017164D01*
X012045Y017164D02*
X011996Y017116D01*
X011996Y017019D01*
X012045Y016971D01*
X012238Y016971D01*
X011786Y017405D02*
X011786Y017502D01*
X011738Y017551D01*
X011786Y017652D02*
X011593Y017845D01*
X011545Y017845D01*
X011496Y017797D01*
X011496Y017700D01*
X011545Y017652D01*
X011545Y017551D02*
X011496Y017502D01*
X011496Y017405D01*
X011545Y017357D01*
X011738Y017357D01*
X011786Y017405D01*
X011786Y017652D02*
X011786Y017845D01*
X010752Y019076D02*
X010752Y019367D01*
X010945Y019367D01*
X010849Y019222D02*
X010752Y019222D01*
X010651Y019270D02*
X010651Y019076D01*
X010505Y019076D01*
X010457Y019125D01*
X010457Y019270D01*
X010356Y019076D02*
X010162Y019076D01*
X010259Y019076D02*
X010259Y019367D01*
X010162Y019270D01*
X010064Y019125D02*
X010064Y019076D01*
X010015Y019076D01*
X010015Y019125D01*
X010064Y019125D01*
X009914Y019125D02*
X009914Y019318D01*
X009721Y019125D01*
X009769Y019076D01*
X009866Y019076D01*
X009914Y019125D01*
X009914Y019318D02*
X009866Y019367D01*
X009769Y019367D01*
X009721Y019318D01*
X009721Y019125D01*
X008486Y017952D02*
X008196Y017952D01*
X008196Y018145D01*
X008341Y018049D02*
X008341Y017952D01*
X008293Y017851D02*
X008486Y017851D01*
X008486Y017705D01*
X008438Y017657D01*
X008293Y017657D01*
X008245Y017556D02*
X008438Y017362D01*
X008486Y017411D01*
X008486Y017508D01*
X008438Y017556D01*
X008245Y017556D01*
X008196Y017508D01*
X008196Y017411D01*
X008245Y017362D01*
X008438Y017362D01*
X008486Y017261D02*
X008486Y017068D01*
X008486Y017165D02*
X008196Y017165D01*
X008293Y017068D01*
X007986Y017405D02*
X007986Y017502D01*
X007938Y017551D01*
X007938Y017652D02*
X007986Y017700D01*
X007986Y017797D01*
X007938Y017845D01*
X007841Y017845D01*
X007793Y017797D01*
X007793Y017749D01*
X007841Y017652D01*
X007696Y017652D01*
X007696Y017845D01*
X007745Y017551D02*
X007696Y017502D01*
X007696Y017405D01*
X007745Y017357D01*
X007938Y017357D01*
X007986Y017405D01*
X008002Y019076D02*
X007905Y019076D01*
X007857Y019125D01*
X007857Y019318D01*
X007905Y019367D01*
X008002Y019367D01*
X008051Y019318D01*
X008152Y019270D02*
X008249Y019367D01*
X008249Y019076D01*
X008345Y019076D02*
X008152Y019076D01*
X008051Y019125D02*
X008002Y019076D01*
X003161Y011667D02*
X003161Y011376D01*
X016696Y015706D02*
X016696Y015997D01*
X016842Y015997D01*
X016890Y015948D01*
X016890Y015852D01*
X016842Y015803D01*
X016696Y015803D01*
X016793Y015803D02*
X016890Y015706D01*
X016991Y015706D02*
X017185Y015706D01*
X017088Y015706D02*
X017088Y015997D01*
X016991Y015900D01*
X018118Y015767D02*
X018118Y015476D01*
X018311Y015476D01*
X018412Y015476D02*
X018412Y015767D01*
X018606Y015767D01*
X018707Y015767D02*
X018852Y015767D01*
X018901Y015718D01*
X018901Y015525D01*
X018852Y015476D01*
X018707Y015476D01*
X018707Y015767D01*
X018509Y015622D02*
X018412Y015622D01*
X018412Y015476D02*
X018606Y015476D01*
X019002Y015525D02*
X019050Y015476D01*
X019147Y015476D01*
X019195Y015525D01*
X019195Y015573D01*
X019147Y015622D01*
X019099Y015622D01*
X019147Y015622D02*
X019195Y015670D01*
X019195Y015718D01*
X019147Y015767D01*
X019050Y015767D01*
X019002Y015718D01*
X018747Y014017D02*
X018602Y013872D01*
X018795Y013872D01*
X018747Y014017D02*
X018747Y013726D01*
X018501Y013726D02*
X018404Y013823D01*
X018452Y013823D02*
X018307Y013823D01*
X018307Y013726D02*
X018307Y014017D01*
X018452Y014017D01*
X018501Y013968D01*
X018501Y013872D01*
X018452Y013823D01*
X018455Y012567D02*
X018552Y012567D01*
X018601Y012518D01*
X018601Y012470D01*
X018552Y012422D01*
X018601Y012373D01*
X018601Y012325D01*
X018552Y012276D01*
X018455Y012276D01*
X018407Y012325D01*
X018306Y012325D02*
X018258Y012276D01*
X018161Y012276D01*
X018112Y012325D01*
X018209Y012422D02*
X018258Y012422D01*
X018306Y012373D01*
X018306Y012325D01*
X018258Y012422D02*
X018306Y012470D01*
X018306Y012518D01*
X018258Y012567D01*
X018161Y012567D01*
X018112Y012518D01*
X018407Y012518D02*
X018455Y012567D01*
X018504Y012422D02*
X018552Y012422D01*
X018702Y012325D02*
X018702Y012518D01*
X018750Y012567D01*
X018847Y012567D01*
X018895Y012518D01*
X018702Y012325D01*
X018750Y012276D01*
X018847Y012276D01*
X018895Y012325D01*
X018895Y012518D01*
X018774Y017696D02*
X018677Y017793D01*
X018725Y017793D02*
X018580Y017793D01*
X018580Y017696D02*
X018580Y017987D01*
X018725Y017987D01*
X018774Y017938D01*
X018774Y017842D01*
X018725Y017793D01*
X018479Y017696D02*
X018286Y017696D01*
X018286Y017987D01*
X018479Y017987D01*
X018382Y017842D02*
X018286Y017842D01*
X018185Y017793D02*
X018185Y017745D01*
X018136Y017696D01*
X018039Y017696D01*
X017991Y017745D01*
X017890Y017745D02*
X017890Y017987D01*
X017991Y017938D02*
X017991Y017890D01*
X018039Y017842D01*
X018136Y017842D01*
X018185Y017793D01*
X018185Y017938D02*
X018136Y017987D01*
X018039Y017987D01*
X017991Y017938D01*
X017890Y017745D02*
X017842Y017696D01*
X017745Y017696D01*
X017696Y017745D01*
X017696Y017987D01*
D12*
X015681Y016981D02*
X015681Y016381D01*
X015679Y016364D01*
X015675Y016347D01*
X015668Y016331D01*
X015658Y016317D01*
X015645Y016304D01*
X015631Y016294D01*
X015615Y016287D01*
X015598Y016283D01*
X015581Y016281D01*
X015431Y016281D01*
X015381Y016331D01*
X013981Y016331D01*
X013931Y016281D01*
X013781Y016281D01*
X013764Y016283D01*
X013747Y016287D01*
X013731Y016294D01*
X013717Y016304D01*
X013704Y016317D01*
X013694Y016331D01*
X013687Y016347D01*
X013683Y016364D01*
X013681Y016381D01*
X013681Y016981D01*
X013683Y016998D01*
X013687Y017015D01*
X013694Y017031D01*
X013704Y017045D01*
X013717Y017058D01*
X013731Y017068D01*
X013747Y017075D01*
X013764Y017079D01*
X013781Y017081D01*
X013931Y017081D01*
X013981Y017031D01*
X015381Y017031D01*
X015431Y017081D01*
X015581Y017081D01*
X015598Y017079D01*
X015615Y017075D01*
X015631Y017068D01*
X015645Y017058D01*
X015658Y017045D01*
X015668Y017031D01*
X015675Y017015D01*
X015679Y016998D01*
X015681Y016981D01*
X011331Y015681D02*
X010581Y015681D01*
X010579Y015642D01*
X010573Y015603D01*
X010564Y015565D01*
X010551Y015528D01*
X010534Y015492D01*
X010514Y015459D01*
X010490Y015427D01*
X010464Y015398D01*
X010435Y015372D01*
X010403Y015348D01*
X010370Y015328D01*
X010334Y015311D01*
X010297Y015298D01*
X010259Y015289D01*
X010220Y015283D01*
X010181Y015281D01*
X010142Y015283D01*
X010103Y015289D01*
X010065Y015298D01*
X010028Y015311D01*
X009992Y015328D01*
X009959Y015348D01*
X009927Y015372D01*
X009898Y015398D01*
X009872Y015427D01*
X009848Y015459D01*
X009828Y015492D01*
X009811Y015528D01*
X009798Y015565D01*
X009789Y015603D01*
X009783Y015642D01*
X009781Y015681D01*
X009031Y015681D01*
X009031Y001681D01*
X011331Y001681D01*
X011331Y015681D01*
X009281Y017131D02*
X009181Y017131D01*
X009081Y017131D01*
X009181Y017131D02*
X009181Y017231D01*
X009181Y017131D02*
X009181Y017031D01*
X008681Y017681D02*
X008683Y017744D01*
X008689Y017806D01*
X008699Y017868D01*
X008712Y017930D01*
X008730Y017990D01*
X008751Y018049D01*
X008776Y018107D01*
X008805Y018163D01*
X008837Y018217D01*
X008872Y018269D01*
X008910Y018318D01*
X008952Y018366D01*
X008996Y018410D01*
X009044Y018452D01*
X009093Y018490D01*
X009145Y018525D01*
X009199Y018557D01*
X009255Y018586D01*
X009313Y018611D01*
X009372Y018632D01*
X009432Y018650D01*
X009494Y018663D01*
X009556Y018673D01*
X009618Y018679D01*
X009681Y018681D01*
X009744Y018679D01*
X009806Y018673D01*
X009868Y018663D01*
X009930Y018650D01*
X009990Y018632D01*
X010049Y018611D01*
X010107Y018586D01*
X010163Y018557D01*
X010217Y018525D01*
X010269Y018490D01*
X010318Y018452D01*
X010366Y018410D01*
X010410Y018366D01*
X010452Y018318D01*
X010490Y018269D01*
X010525Y018217D01*
X010557Y018163D01*
X010586Y018107D01*
X010611Y018049D01*
X010632Y017990D01*
X010650Y017930D01*
X010663Y017868D01*
X010673Y017806D01*
X010679Y017744D01*
X010681Y017681D01*
X010679Y017618D01*
X010673Y017556D01*
X010663Y017494D01*
X010650Y017432D01*
X010632Y017372D01*
X010611Y017313D01*
X010586Y017255D01*
X010557Y017199D01*
X010525Y017145D01*
X010490Y017093D01*
X010452Y017044D01*
X010410Y016996D01*
X010366Y016952D01*
X010318Y016910D01*
X010269Y016872D01*
X010217Y016837D01*
X010163Y016805D01*
X010107Y016776D01*
X010049Y016751D01*
X009990Y016730D01*
X009930Y016712D01*
X009868Y016699D01*
X009806Y016689D01*
X009744Y016683D01*
X009681Y016681D01*
X009618Y016683D01*
X009556Y016689D01*
X009494Y016699D01*
X009432Y016712D01*
X009372Y016730D01*
X009313Y016751D01*
X009255Y016776D01*
X009199Y016805D01*
X009145Y016837D01*
X009093Y016872D01*
X009044Y016910D01*
X008996Y016952D01*
X008952Y016996D01*
X008910Y017044D01*
X008872Y017093D01*
X008837Y017145D01*
X008805Y017199D01*
X008776Y017255D01*
X008751Y017313D01*
X008730Y017372D01*
X008712Y017432D01*
X008699Y017494D01*
X008689Y017556D01*
X008683Y017618D01*
X008681Y017681D01*
X007381Y015781D02*
X007281Y015681D01*
X006131Y015681D01*
X007381Y015781D02*
X007381Y019581D01*
X007281Y019681D01*
X006131Y019681D01*
X013131Y007781D02*
X013131Y007681D01*
X013231Y007681D01*
X013131Y007681D02*
X013131Y007581D01*
X013131Y007681D02*
X013031Y007681D01*
X012681Y007181D02*
X012683Y007244D01*
X012689Y007306D01*
X012699Y007368D01*
X012712Y007430D01*
X012730Y007490D01*
X012751Y007549D01*
X012776Y007607D01*
X012805Y007663D01*
X012837Y007717D01*
X012872Y007769D01*
X012910Y007818D01*
X012952Y007866D01*
X012996Y007910D01*
X013044Y007952D01*
X013093Y007990D01*
X013145Y008025D01*
X013199Y008057D01*
X013255Y008086D01*
X013313Y008111D01*
X013372Y008132D01*
X013432Y008150D01*
X013494Y008163D01*
X013556Y008173D01*
X013618Y008179D01*
X013681Y008181D01*
X013744Y008179D01*
X013806Y008173D01*
X013868Y008163D01*
X013930Y008150D01*
X013990Y008132D01*
X014049Y008111D01*
X014107Y008086D01*
X014163Y008057D01*
X014217Y008025D01*
X014269Y007990D01*
X014318Y007952D01*
X014366Y007910D01*
X014410Y007866D01*
X014452Y007818D01*
X014490Y007769D01*
X014525Y007717D01*
X014557Y007663D01*
X014586Y007607D01*
X014611Y007549D01*
X014632Y007490D01*
X014650Y007430D01*
X014663Y007368D01*
X014673Y007306D01*
X014679Y007244D01*
X014681Y007181D01*
X014679Y007118D01*
X014673Y007056D01*
X014663Y006994D01*
X014650Y006932D01*
X014632Y006872D01*
X014611Y006813D01*
X014586Y006755D01*
X014557Y006699D01*
X014525Y006645D01*
X014490Y006593D01*
X014452Y006544D01*
X014410Y006496D01*
X014366Y006452D01*
X014318Y006410D01*
X014269Y006372D01*
X014217Y006337D01*
X014163Y006305D01*
X014107Y006276D01*
X014049Y006251D01*
X013990Y006230D01*
X013930Y006212D01*
X013868Y006199D01*
X013806Y006189D01*
X013744Y006183D01*
X013681Y006181D01*
X013618Y006183D01*
X013556Y006189D01*
X013494Y006199D01*
X013432Y006212D01*
X013372Y006230D01*
X013313Y006251D01*
X013255Y006276D01*
X013199Y006305D01*
X013145Y006337D01*
X013093Y006372D01*
X013044Y006410D01*
X012996Y006452D01*
X012952Y006496D01*
X012910Y006544D01*
X012872Y006593D01*
X012837Y006645D01*
X012805Y006699D01*
X012776Y006755D01*
X012751Y006813D01*
X012730Y006872D01*
X012712Y006932D01*
X012699Y006994D01*
X012689Y007056D01*
X012683Y007118D01*
X012681Y007181D01*
X014781Y005581D02*
X014781Y005431D01*
X014831Y005381D01*
X014831Y003981D01*
X014781Y003931D01*
X014781Y003781D01*
X014783Y003764D01*
X014787Y003747D01*
X014794Y003731D01*
X014804Y003717D01*
X014817Y003704D01*
X014831Y003694D01*
X014847Y003687D01*
X014864Y003683D01*
X014881Y003681D01*
X015481Y003681D01*
X015498Y003683D01*
X015515Y003687D01*
X015531Y003694D01*
X015545Y003704D01*
X015558Y003717D01*
X015568Y003731D01*
X015575Y003747D01*
X015579Y003764D01*
X015581Y003781D01*
X015581Y003931D01*
X015531Y003981D01*
X015531Y005381D01*
X015581Y005431D01*
X015581Y005581D01*
X015579Y005598D01*
X015575Y005615D01*
X015568Y005631D01*
X015558Y005645D01*
X015545Y005658D01*
X015531Y005668D01*
X015515Y005675D01*
X015498Y005679D01*
X015481Y005681D01*
X014881Y005681D01*
X014864Y005679D01*
X014847Y005675D01*
X014831Y005668D01*
X014817Y005658D01*
X014804Y005645D01*
X014794Y005631D01*
X014787Y005615D01*
X014783Y005598D01*
X014781Y005581D01*
D13*
X010406Y005764D02*
X010406Y005914D01*
X010406Y005839D02*
X009956Y005839D01*
X009956Y005764D02*
X009956Y005914D01*
X010031Y006071D02*
X009956Y006146D01*
X009956Y006296D01*
X010031Y006371D01*
X010031Y006532D02*
X009956Y006607D01*
X009956Y006757D01*
X010031Y006832D01*
X010106Y006832D01*
X010181Y006757D01*
X010256Y006832D01*
X010331Y006832D01*
X010406Y006757D01*
X010406Y006607D01*
X010331Y006532D01*
X010331Y006371D02*
X010406Y006296D01*
X010406Y006146D01*
X010331Y006071D01*
X010031Y006071D01*
X010031Y005604D02*
X010181Y005604D01*
X010256Y005529D01*
X010256Y005304D01*
X010406Y005304D02*
X009956Y005304D01*
X009956Y005529D01*
X010031Y005604D01*
X010181Y006682D02*
X010181Y006757D01*
X010031Y006992D02*
X009956Y007067D01*
X009956Y007217D01*
X010031Y007292D01*
X010106Y007292D01*
X010406Y006992D01*
X010406Y007292D01*
X010406Y007452D02*
X009956Y007452D01*
X010106Y007602D01*
X009956Y007753D01*
X010406Y007753D01*
X010406Y007913D02*
X009956Y008213D01*
X010031Y008373D02*
X009956Y008448D01*
X009956Y008598D01*
X010031Y008673D01*
X010106Y008673D01*
X010406Y008373D01*
X010406Y008673D01*
X010331Y008833D02*
X010406Y008908D01*
X010406Y009059D01*
X010331Y009134D01*
X010181Y009134D01*
X010106Y009059D01*
X010106Y008984D01*
X010181Y008833D01*
X009956Y008833D01*
X009956Y009134D01*
X010031Y009294D02*
X009956Y009369D01*
X009956Y009519D01*
X010031Y009594D01*
X010331Y009294D01*
X010406Y009369D01*
X010406Y009519D01*
X010331Y009594D01*
X010031Y009594D01*
X009956Y009754D02*
X009956Y010054D01*
X010106Y010214D02*
X009956Y010365D01*
X010406Y010365D01*
X010406Y010515D02*
X010406Y010214D01*
X010181Y009904D02*
X010181Y009754D01*
X010406Y009754D02*
X009956Y009754D01*
X010031Y009294D02*
X010331Y009294D01*
X010406Y008213D02*
X009956Y007913D01*
X010031Y010675D02*
X009956Y010750D01*
X009956Y010900D01*
X010031Y010975D01*
X010106Y010975D01*
X010406Y010675D01*
X010406Y010975D01*
X010331Y011135D02*
X010256Y011135D01*
X010181Y011210D01*
X010181Y011360D01*
X010256Y011435D01*
X010331Y011435D01*
X010406Y011360D01*
X010406Y011210D01*
X010331Y011135D01*
X010181Y011210D02*
X010106Y011135D01*
X010031Y011135D01*
X009956Y011210D01*
X009956Y011360D01*
X010031Y011435D01*
X010106Y011435D01*
X010181Y011360D01*
X010181Y011596D02*
X010181Y011821D01*
X010256Y011896D01*
X010331Y011896D01*
X010406Y011821D01*
X010406Y011596D01*
X009956Y011596D01*
X009956Y011821D01*
X010031Y011896D01*
X010106Y011896D01*
X010181Y011821D01*
D14*
X014731Y015068D03*
X018632Y015295D03*
X014731Y001568D03*
D15*
X014760Y001544D02*
X014603Y001544D01*
X014603Y001819D02*
X014760Y001819D01*
X015128Y004324D02*
X015011Y004441D01*
X015361Y004441D01*
X015361Y004557D02*
X015361Y004324D01*
X015303Y004683D02*
X015070Y004683D01*
X015011Y004741D01*
X015011Y004858D01*
X015070Y004917D01*
X015303Y004683D01*
X015361Y004741D01*
X015361Y004858D01*
X015303Y004917D01*
X015070Y004917D01*
X015011Y005042D02*
X015361Y005042D01*
X015245Y005042D02*
X015128Y005217D01*
X015245Y005042D02*
X015361Y005217D01*
X016510Y014201D02*
X016451Y014260D01*
X016510Y014201D02*
X016627Y014201D01*
X016685Y014260D01*
X016685Y014318D01*
X016627Y014377D01*
X016568Y014377D01*
X016627Y014377D02*
X016685Y014435D01*
X016685Y014493D01*
X016627Y014552D01*
X016510Y014552D01*
X016451Y014493D01*
X016811Y014493D02*
X016869Y014552D01*
X016986Y014552D01*
X017044Y014493D01*
X017044Y014435D01*
X016986Y014377D01*
X017044Y014318D01*
X017044Y014260D01*
X016986Y014201D01*
X016869Y014201D01*
X016811Y014260D01*
X016927Y014377D02*
X016986Y014377D01*
X017170Y014493D02*
X017170Y014260D01*
X017403Y014493D01*
X017403Y014260D01*
X017345Y014201D01*
X017228Y014201D01*
X017170Y014260D01*
X017170Y014493D02*
X017228Y014552D01*
X017345Y014552D01*
X017403Y014493D01*
X018603Y015044D02*
X018760Y015044D01*
X018760Y015319D02*
X018603Y015319D01*
X015217Y016501D02*
X015042Y016618D01*
X015217Y016735D01*
X015042Y016852D02*
X015042Y016501D01*
X014917Y016560D02*
X014858Y016501D01*
X014741Y016501D01*
X014683Y016560D01*
X014917Y016793D01*
X014917Y016560D01*
X014683Y016560D02*
X014683Y016793D01*
X014741Y016852D01*
X014858Y016852D01*
X014917Y016793D01*
X014557Y016501D02*
X014324Y016501D01*
X014441Y016501D02*
X014441Y016852D01*
X014324Y016735D01*
X014603Y015319D02*
X014760Y015319D01*
X014760Y015044D02*
X014603Y015044D01*
D16*
X015181Y005756D03*
X015181Y003606D03*
D17*
X015756Y016681D03*
X013606Y016681D03*
D18*
X007141Y015861D03*
D19*
X005931Y015956D03*
X005931Y019406D03*
D20*
X005831Y018681D03*
X005831Y017681D03*
X005831Y016681D03*
D21*
X005931Y017181D03*
X005931Y018181D03*
D22*
X001181Y014431D02*
X001181Y013931D01*
X000931Y013681D01*
X001181Y013431D01*
X001181Y012931D01*
X000931Y012681D01*
X001181Y012431D01*
X001181Y011931D01*
X000931Y011681D01*
X001181Y011431D01*
X001181Y010931D01*
X000931Y010681D01*
X000431Y010681D01*
X000181Y010931D01*
X000181Y011431D01*
X000431Y011681D01*
X000181Y011931D01*
X000181Y012431D01*
X000431Y012681D01*
X000181Y012931D01*
X000181Y013431D01*
X000431Y013681D01*
X000181Y013931D01*
X000181Y014431D01*
X000431Y014681D01*
X000931Y014681D01*
X001181Y014431D01*
X000931Y009681D02*
X000431Y009681D01*
X000181Y009431D01*
X000181Y008931D01*
X000431Y008681D01*
X000181Y008431D01*
X000181Y007931D01*
X000431Y007681D01*
X000181Y007431D01*
X000181Y006931D01*
X000431Y006681D01*
X000181Y006431D01*
X000181Y005931D01*
X000431Y005681D01*
X000931Y005681D01*
X001181Y005931D01*
X001181Y006431D01*
X000931Y006681D01*
X001181Y006931D01*
X001181Y007431D01*
X000931Y007681D01*
X001181Y007931D01*
X001181Y008431D01*
X000931Y008681D01*
X001181Y008931D01*
X001181Y009431D01*
X000931Y009681D01*
X000931Y004681D02*
X000431Y004681D01*
X000181Y004431D01*
X000181Y003931D01*
X000431Y003681D01*
X000181Y003431D01*
X000181Y002931D01*
X000431Y002681D01*
X000181Y002431D01*
X000181Y001931D01*
X000431Y001681D01*
X000181Y001431D01*
X000181Y000931D01*
X000431Y000681D01*
X000931Y000681D01*
X001181Y000931D01*
X001181Y001431D01*
X000931Y001681D01*
X001181Y001931D01*
X001181Y002431D01*
X000931Y002681D01*
X001181Y002931D01*
X001181Y003431D01*
X000931Y003681D01*
X001181Y003931D01*
X001181Y004431D01*
X000931Y004681D01*
X002931Y001681D02*
X002681Y001431D01*
X002681Y000931D01*
X002931Y000681D01*
X003431Y000681D01*
X003681Y000931D01*
X003931Y000681D01*
X004431Y000681D01*
X004681Y000931D01*
X004931Y000681D01*
X005431Y000681D01*
X005681Y000931D01*
X005931Y000681D01*
X006431Y000681D01*
X006681Y000931D01*
X006931Y000681D01*
X007431Y000681D01*
X007681Y000931D01*
X007681Y001431D01*
X007431Y001681D01*
X006931Y001681D01*
X006681Y001431D01*
X006431Y001681D01*
X005931Y001681D01*
X005681Y001431D01*
X005431Y001681D01*
X004931Y001681D01*
X004681Y001431D01*
X004431Y001681D01*
X003931Y001681D01*
X003681Y001431D01*
X003431Y001681D01*
X002931Y001681D01*
X006431Y005681D02*
X006931Y005681D01*
X007181Y005931D01*
X007181Y006431D01*
X006931Y006681D01*
X007181Y006931D01*
X007181Y007431D01*
X006931Y007681D01*
X007181Y007931D01*
X007181Y008431D01*
X006931Y008681D01*
X006431Y008681D01*
X006181Y008431D01*
X006181Y007931D01*
X006431Y007681D01*
X006181Y007431D01*
X006181Y006931D01*
X006431Y006681D01*
X006181Y006431D01*
X006181Y005931D01*
X006431Y005681D01*
X018681Y005931D02*
X018681Y006431D01*
X018931Y006681D01*
X018681Y006931D01*
X018681Y007431D01*
X018931Y007681D01*
X018681Y007931D01*
X018681Y008431D01*
X018931Y008681D01*
X018681Y008931D01*
X018681Y009431D01*
X018931Y009681D01*
X019431Y009681D01*
X019681Y009431D01*
X019681Y008931D01*
X019431Y008681D01*
X019681Y008431D01*
X019681Y007931D01*
X019431Y007681D01*
X019681Y007431D01*
X019681Y006931D01*
X019431Y006681D01*
X019681Y006431D01*
X019681Y005931D01*
X019431Y005681D01*
X018931Y005681D01*
X018681Y005931D01*
X018931Y004681D02*
X018681Y004431D01*
X018681Y003931D01*
X018931Y003681D01*
X018681Y003431D01*
X018681Y002931D01*
X018931Y002681D01*
X018681Y002431D01*
X018681Y001931D01*
X018931Y001681D01*
X018681Y001431D01*
X018681Y000931D01*
X018931Y000681D01*
X019431Y000681D01*
X019681Y000931D01*
X019681Y001431D01*
X019431Y001681D01*
X019681Y001931D01*
X019681Y002431D01*
X019431Y002681D01*
X019681Y002931D01*
X019681Y003431D01*
X019431Y003681D01*
X019681Y003931D01*
X019681Y004431D01*
X019431Y004681D01*
X018931Y004681D01*
X018931Y018181D02*
X018681Y018431D01*
X018681Y018931D01*
X018931Y019181D01*
X019431Y019181D01*
X019681Y018931D01*
X019681Y018431D01*
X019431Y018181D01*
X018931Y018181D01*
X017681Y018431D02*
X017681Y018931D01*
X017431Y019181D01*
X016931Y019181D01*
X016681Y018931D01*
X016681Y018431D01*
X016931Y018181D01*
X017431Y018181D01*
X017681Y018431D01*
X015681Y018431D02*
X015681Y018931D01*
X015431Y019181D01*
X014931Y019181D01*
X014681Y018931D01*
X014681Y018431D01*
X014931Y018181D01*
X015431Y018181D01*
X015681Y018431D01*
X013681Y018431D02*
X013681Y018931D01*
X013431Y019181D01*
X012931Y019181D01*
X012681Y018931D01*
X012681Y018431D01*
X012931Y018181D01*
X013431Y018181D01*
X013681Y018431D01*
M02*
