  0
SECTION
  2
HEADER
  9
$ACADVER
  1
AC1009
  9
$DWGCODEPAGE
  3
undefined
  9
$INSBASE
 10
0.0
 20
0.0
 30
0.0
  9
$EXTMIN
 10
1.000000000000000E+20
 20
1.000000000000000E+20
 30
1.000000000000000E+20
  9
$EXTMAX
 10
-1.000000000000000E+20
 20
-1.000000000000000E+20
 30
-1.000000000000000E+20
  9
$LIMMIN
 10
0.0
 20
0.0
  9
$LIMMAX
 10
12.0
 20
9.0
  9
$ORTHOMODE
 70
     0
  9
$REGENMODE
 70
     1
  9
$FILLMODE
 70
     1
  9
$QTEXTMODE
 70
     0
  9
$MIRRTEXT
 70
     1
  9
$DRAGMODE
 70
     2
  9
$LTSCALE
 40
1.0
  9
$OSMODE
 70
    37
  9
$ATTMODE
 70
     1
  9
$TEXTSIZE
 40
0.2
  9
$TRACEWID
 40
0.05
  9
$TEXTSTYLE
  7
STANDARD
  9
$CLAYER
  8
0
  9
$CELTYPE
  6
BYLAYER
  9
$CECOLOR
 62
   256
  9
$DIMSCALE
 40
1.0
  9
$DIMASZ
 40
0.18
  9
$DIMEXO
 40
0.0625
  9
$DIMDLI
 40
0.38
  9
$DIMRND
 40
0.0
  9
$DIMDLE
 40
0.0
  9
$DIMEXE
 40
0.18
  9
$DIMTP
 40
0.0
  9
$DIMTM
 40
0.0
  9
$DIMTXT
 40
0.18
  9
$DIMCEN
 40
0.09
  9
$DIMTSZ
 40
0.0
  9
$DIMTOL
 70
     0
  9
$DIMLIM
 70
     0
  9
$DIMTIH
 70
     1
  9
$DIMTOH
 70
     1
  9
$DIMSE1
 70
     0
  9
$DIMSE2
 70
     0
  9
$DIMTAD
 70
     0
  9
$DIMZIN
 70
     0
  9
$DIMBLK
  1

  9
$DIMASO
 70
     1
  9
$DIMSHO
 70
     1
  9
$DIMPOST
  1

  9
$DIMAPOST
  1

  9
$DIMALT
 70
     0
  9
$DIMALTD
 70
     2
  9
$DIMALTF
 40
25.4
  9
$DIMLFAC
 40
1.0
  9
$DIMTOFL
 70
     0
  9
$DIMTVP
 40
0.0
  9
$DIMTIX
 70
     0
  9
$DIMSOXD
 70
     0
  9
$DIMSAH
 70
     0
  9
$DIMBLK1
  1

  9
$DIMBLK2
  1

  9
$DIMSTYLE
  2
STANDARD
  9
$DIMCLRD
 70
     0
  9
$DIMCLRE
 70
     0
  9
$DIMCLRT
 70
     0
  9
$DIMTFAC
 40
1.0
  9
$DIMGAP
 40
0.09
  9
$LUNITS
 70
     2
  9
$LUPREC
 70
     4
  9
$SKETCHINC
 40
0.1
  9
$FILLETRAD
 40
0.5
  9
$AUNITS
 70
     0
  9
$AUPREC
 70
     0
  9
$MENU
  1
.
  9
$ELEVATION
 40
0.0
  9
$PELEVATION
 40
0.0
  9
$THICKNESS
 40
0.0
  9
$LIMCHECK
 70
     0
  9
$CHAMFERA
 40
0.0
  9
$CHAMFERB
 40
0.0
  9
$SKPOLY
 70
     0
  9
$TDCREATE
 40
2457178.876041667
  9
$TDUPDATE
 40
2457178.876041667
  9
$TDINDWG
 40
0.0000000116
  9
$TDUSRTIMER
 40
0.0000000116
  9
$USRTIMER
 70
     1
  9
$ANGBASE
 50
0.0
  9
$ANGDIR
 70
     0
  9
$PDMODE
 70
     0
  9
$PDSIZE
 40
0.0
  9
$PLINEWID
 40
0.0
  9
$COORDS
 70
     1
  9
$SPLFRAME
 70
     0
  9
$SPLINETYPE
 70
     6
  9
$SPLINESEGS
 70
     8
  9
$ATTDIA
 70
     0
  9
$ATTREQ
 70
     1
  9
$HANDLING
 70
     1
  9
$HANDSEED
  5
10000237
  9
$SURFTAB1
 70
     6
  9
$SURFTAB2
 70
     6
  9
$SURFTYPE
 70
     6
  9
$SURFU
 70
     6
  9
$SURFV
 70
     6
  9
$UCSNAME
  2

  9
$UCSORG
 10
0.0
 20
0.0
 30
0.0
  9
$UCSXDIR
 10
1.0
 20
0.0
 30
0.0
  9
$UCSYDIR
 10
0.0
 20
1.0
 30
0.0
  9
$PUCSNAME
  2

  9
$PUCSORG
 10
0.0
 20
0.0
 30
0.0
  9
$PUCSXDIR
 10
1.0
 20
0.0
 30
0.0
  9
$PUCSYDIR
 10
0.0
 20
1.0
 30
0.0
  9
$USERI1
 70
     0
  9
$USERI2
 70
     0
  9
$USERI3
 70
     0
  9
$USERI4
 70
     0
  9
$USERI5
 70
     0
  9
$USERR1
 40
0.0
  9
$USERR2
 40
0.0
  9
$USERR3
 40
0.0
  9
$USERR4
 40
0.0
  9
$USERR5
 40
0.0
  9
$WORLDVIEW
 70
     1
  9
$SHADEDGE
 70
     3
  9
$SHADEDIF
 70
    70
  9
$TILEMODE
 70
     1
  9
$MAXACTVP
 70
    64
  9
$PLIMCHECK
 70
     0
  9
$PEXTMIN
 10
1.000000000000000E+20
 20
1.000000000000000E+20
 30
1.000000000000000E+20
  9
$PEXTMAX
 10
-1.000000000000000E+20
 20
-1.000000000000000E+20
 30
-1.000000000000000E+20
  9
$PLIMMIN
 10
0.0
 20
0.0
  9
$PLIMMAX
 10
12.0
 20
9.0
  9
$UNITMODE
 70
     0
  9
$VISRETAIN
 70
     1
  9
$PLINEGEN
 70
     0
  9
$PSLTSCALE
 70
     1
  0
ENDSEC
  0
SECTION
  2
TABLES
  0
TABLE
  2
VPORT
 70
     1
  0
VPORT
  2
*ACTIVE
 70
     0
 10
0.0
 20
0.0
 11
1.0
 21
1.0
 12
10.42990654205607
 22
4.5
 13
0.0
 23
0.0
 14
0.5
 24
0.5
 15
0.5
 25
0.5
 16
0.0
 26
0.0
 36
1.0
 17
0.0
 27
0.0
 37
0.0
 40
9.0
 41
1.972972972850329
 42
50.0
 43
0.0
 44
0.0
 50
0.0
 51
0.0
 71
     0
 72
   100
 73
     1
 74
     3
 75
     0
 76
     0
 77
     0
 78
     0
  0
ENDTAB
  0
TABLE
  2
LTYPE
 70
     5
  0
LTYPE
  2
CONTINUOUS
 70
     0
  3
Solid line
 72
    65
 73
     0
 40
0.0
  0
LTYPE
  2
HIDDEN
 70
     0
  3
Hidden line ____ ____ ____ ____ 
 72
    83
 73
     2
 40
0.125
 49
0.25
 49
-0.125
  0
LTYPE
  2
PHANTOM
 70
     0
  3
Phantom line ______  __  __  ______  __  __
 72
    83
 73
     6
 40
0.5
 49
0.625
 49
-0.125
 49
0.125
 49
-0.125
 49
0.125
 49
-0.125
  0
LTYPE
  2
CENTER
 70
     0
  3
Center line ____ _ ____ _ ____ _
 72
    83
 73
     4
 40
0.5
 49
0.625
 49
-0.125
 49
0.125
 49
-0.125
  0
LTYPE
  2
DASHED
 70
     0
  3
Dashed line __ __ __ __
 72
    83
 73
     2
 40
0.25
 49
0.5
 49
-0.25
  0
ENDTAB
  0
TABLE
  2
LAYER
 70
     5
  0
LAYER
  2
0
 70
     0
 62
     7
  6
CONTINUOUS
  0
LAYER
  2
HIDDEN
 70
     0
 62
    -7
  6
HIDDEN
  0
LAYER
  2
VISIBLE
 70
     0
 62
     7
  6
CONTINUOUS
  0
LAYER
  2
TANGENT_LINES
 70
     0
 62
     7
  6
CONTINUOUS
  0
LAYER
  2
INVISIBLE_LINES
 70
     0
 62
    -7
  6
CONTINUOUS
  0
ENDTAB
  0
TABLE
  2
STYLE
 70
     2
  0
STYLE
  2
STANDARD
 70
     0
 40
0.0
 41
1.0
 50
0.0
 71
     0
 42
0.2
  3
txt
  4

  0
STYLE
  2
ODATTFSTYLE
 70
     0
 40
0.0
 41
1.0
 50
0.0
 71
     0
 42
0.2
  3
Verdana.ttf
  4

  0
ENDTAB
  0
TABLE
  2
VIEW
 70
     0
  0
ENDTAB
  0
TABLE
  2
UCS
 70
     0
  0
ENDTAB
  0
TABLE
  2
APPID
 70
     1
  0
APPID
  2
ACAD
 70
     0
  0
ENDTAB
  0
TABLE
  2
DIMSTYLE
 70
     1
  0
DIMSTYLE
  2
STANDARD
 70
     0
  3

  4

  5

  6

  7

 40
1.0
 41
0.18
 42
0.0625
 43
0.38
 44
0.18
 45
0.0
 46
0.0
 47
0.0
 48
0.0
140
0.18
141
0.09
142
0.0
143
25.4
144
1.0
145
0.0
146
1.0
147
0.09
 71
     0
 72
     0
 73
     1
 74
     1
 75
     0
 76
     0
 77
     0
 78
     0
170
     0
171
     2
172
     0
173
     0
174
     0
175
     0
176
     0
177
     0
178
     0
  0
ENDTAB
  0
ENDSEC
  0
SECTION
  2
BLOCKS
  0
BLOCK
  8
0
  2
$MODEL_SPACE
 70
     0
 10
0.0
 20
0.0
 30
0.0
  3
$MODEL_SPACE
  1

  0
ENDBLK
  5
21
  8
0
  0
BLOCK
 67
     1
  8
0
  2
$PAPER_SPACE
 70
     0
 10
0.0
 20
0.0
 30
0.0
  3
$PAPER_SPACE
  1

  0
ENDBLK
  5
1D
 67
     1
  8
0
  0
ENDSEC
  0
SECTION
  2
ENTITIES
  0
POLYLINE
  5
F43E5
  8
VISIBLE
 66
     1
 10
0.0
 20
0.0
 30
0.125
 70
     1
  0
VERTEX
  5
10000097
  8
VISIBLE
 10
3.675662619579495
 20
1.477296327975792
 30
0.125
  0
VERTEX
  5
10000098
  8
VISIBLE
 10
3.667015995760949
 20
1.482496077175396
 30
0.125
  0
VERTEX
  5
10000099
  8
VISIBLE
 10
3.641408409209574
 20
1.487496002929313
 30
0.125
  0
VERTEX
  5
1000009A
  8
VISIBLE
 10
3.599823945115641
 20
1.492103960894809
 30
0.125
  0
VERTEX
  5
1000009B
  8
VISIBLE
 10
3.543860671113442
 20
1.496142869831444
 30
0.125
  0
VERTEX
  5
1000009C
  8
VISIBLE
 10
3.475669224438316
 20
1.499457516733828
 30
0.125
  0
VERTEX
  5
1000009D
  8
VISIBLE
 10
3.397870164143786
 20
1.501920521580379
 30
0.125
  0
VERTEX
  5
1000009E
  8
VISIBLE
 10
3.313453264486753
 20
1.503437232476113
 30
0.125
  0
VERTEX
  5
1000009F
  8
VISIBLE
 10
3.225662619579495
 20
1.503949363071887
 30
0.125
  0
VERTEX
  5
100000A0
  8
VISIBLE
 10
3.137871974672237
 20
1.503437232476113
 30
0.125
  0
VERTEX
  5
100000A1
  8
VISIBLE
 10
3.053455075015205
 20
1.501920521580379
 30
0.125
  0
VERTEX
  5
100000A2
  8
VISIBLE
 10
2.975656014720674
 20
1.499457516733829
 30
0.125
  0
VERTEX
  5
100000A3
  8
VISIBLE
 10
2.907464568045548
 20
1.496142869831444
 30
0.125
  0
VERTEX
  5
100000A4
  8
VISIBLE
 10
2.85150129404335
 20
1.492103960894809
 30
0.125
  0
VERTEX
  5
100000A5
  8
VISIBLE
 10
2.809916829949416
 20
1.487496002929312
 30
0.125
  0
VERTEX
  5
100000A6
  8
VISIBLE
 10
2.784309243398041
 20
1.482496077175396
 30
0.125
  0
VERTEX
  5
100000A7
  8
VISIBLE
 10
2.775662619579495
 20
1.477296327975791
 30
0.125
  0
VERTEX
  5
100000A8
  8
VISIBLE
 10
2.784309243398041
 20
1.472096578776187
 30
0.125
  0
VERTEX
  5
100000A9
  8
VISIBLE
 10
2.809916829949416
 20
1.46709665302227
 30
0.125
  0
VERTEX
  5
100000AA
  8
VISIBLE
 10
2.85150129404335
 20
1.462488695056773
 30
0.125
  0
VERTEX
  5
100000AB
  8
VISIBLE
 10
2.907464568045549
 20
1.458449786120139
 30
0.125
  0
VERTEX
  5
100000AC
  8
VISIBLE
 10
2.975656014720674
 20
1.455135139217754
 30
0.125
  0
VERTEX
  5
100000AD
  8
VISIBLE
 10
3.053455075015205
 20
1.452672134371203
 30
0.125
  0
VERTEX
  5
100000AE
  8
VISIBLE
 10
3.137871974672238
 20
1.45115542347547
 30
0.125
  0
VERTEX
  5
100000AF
  8
VISIBLE
 10
3.225662619579496
 20
1.450643292879695
 30
0.125
  0
VERTEX
  5
100000B0
  8
VISIBLE
 10
3.313453264486754
 20
1.45115542347547
 30
0.125
  0
VERTEX
  5
100000B1
  8
VISIBLE
 10
3.397870164143787
 20
1.452672134371203
 30
0.125
  0
VERTEX
  5
100000B2
  8
VISIBLE
 10
3.475669224438318
 20
1.455135139217754
 30
0.125
  0
VERTEX
  5
100000B3
  8
VISIBLE
 10
3.543860671113443
 20
1.458449786120139
 30
0.125
  0
VERTEX
  5
100000B4
  8
VISIBLE
 10
3.599823945115642
 20
1.462488695056774
 30
0.125
  0
VERTEX
  5
100000B5
  8
VISIBLE
 10
3.641408409209575
 20
1.46709665302227
 30
0.125
  0
VERTEX
  5
100000B6
  8
VISIBLE
 10
3.667015995760949
 20
1.472096578776187
 30
0.125
  0
SEQEND
  5
10000225
  8
VISIBLE
  0
POLYLINE
  5
F43E6
  8
VISIBLE
 66
     1
 10
0.0
 20
0.0
 30
0.125
  0
VERTEX
  5
100000B7
  8
VISIBLE
 10
2.725662619579495
 20
0.9065171613232315
 30
0.125
  0
VERTEX
  5
100000B8
  8
VISIBLE
 10
2.813452774350925
 20
0.9072904361178578
 30
0.125
  0
VERTEX
  5
100000B9
  8
VISIBLE
 10
2.897869202707775
 20
0.9089947357394487
 30
0.125
  0
VERTEX
  5
100000BA
  8
VISIBLE
 10
2.97566782864957
 20
0.9115645649093287
 30
0.125
  0
VERTEX
  5
100000BB
  8
VISIBLE
 10
3.043858894611338
 20
0.914901166533676
 30
0.125
  0
VERTEX
  5
100000BC
  8
VISIBLE
 10
3.09982185617016
 20
0.918876316883255
 30
0.125
  0
VERTEX
  5
100000BD
  8
VISIBLE
 10
3.141406088097719
 20
0.9233372531594211
 30
0.125
  0
VERTEX
  5
100000BE
  8
VISIBLE
 10
3.167013531681746
 20
0.9281125440828032
 30
0.125
  0
VERTEX
  5
100000BF
  8
VISIBLE
 10
3.175660107226127
 20
0.9330186779012297
 30
0.125
  0
VERTEX
  5
100000C0
  8
VISIBLE
 10
3.167013531681746
 20
0.9378671146434501
 30
0.125
  0
VERTEX
  5
100000C1
  8
VISIBLE
 10
3.141406088097718
 20
0.9424715316044953
 30
0.125
  0
VERTEX
  5
100000C2
  8
VISIBLE
 10
3.099821856170159
 20
0.9466549836227395
 30
0.125
  0
VERTEX
  5
100000C3
  8
VISIBLE
 10
3.043858894611338
 20
0.9502567029832282
 30
0.125
  0
VERTEX
  5
100000C4
  8
VISIBLE
 10
2.975667828649569
 20
0.9531382776308053
 30
0.125
  0
VERTEX
  5
100000C5
  8
VISIBLE
 10
2.897869202707775
 20
0.9551889702677703
 30
0.125
  0
VERTEX
  5
100000C6
  8
VISIBLE
 10
2.813452774350925
 20
0.956329973926126
 30
0.125
  0
VERTEX
  5
100000C7
  8
VISIBLE
 10
2.725662619579495
 20
0.9565174404751644
 30
0.125
  0
SEQEND
  5
10000226
  8
VISIBLE
  0
LINE
  5
F43E7
  8
VISIBLE
 10
2.725662619579496
 20
0.9065171613232315
 30
0.125
 11
2.725662619579496
 21
0.7999339759082352
 31
0.125
  0
POLYLINE
  5
F43E8
  8
VISIBLE
 66
     1
 10
0.0
 20
0.0
 30
0.125
  0
VERTEX
  5
100000C8
  8
VISIBLE
 10
2.725662619579495
 20
0.7499336967563024
 30
0.125
  0
VERTEX
  5
100000C9
  8
VISIBLE
 10
2.813452774350925
 20
0.7507069715509287
 30
0.125
  0
VERTEX
  5
100000CA
  8
VISIBLE
 10
2.897869202707775
 20
0.7524112711725196
 30
0.125
  0
VERTEX
  5
100000CB
  8
VISIBLE
 10
2.97566782864957
 20
0.7549811003423996
 30
0.125
  0
VERTEX
  5
100000CC
  8
VISIBLE
 10
3.043858894611338
 20
0.758317701966747
 30
0.125
  0
VERTEX
  5
100000CD
  8
VISIBLE
 10
3.09982185617016
 20
0.7622928523163259
 30
0.125
  0
VERTEX
  5
100000CE
  8
VISIBLE
 10
3.141406088097719
 20
0.766753788592492
 30
0.125
  0
VERTEX
  5
100000CF
  8
VISIBLE
 10
3.167013531681746
 20
0.7715290795158741
 30
0.125
  0
VERTEX
  5
100000D0
  8
VISIBLE
 10
3.175660107226127
 20
0.7764352133343007
 30
0.125
  0
VERTEX
  5
100000D1
  8
VISIBLE
 10
3.167013531681746
 20
0.781283650076521
 30
0.125
  0
VERTEX
  5
100000D2
  8
VISIBLE
 10
3.141406088097718
 20
0.7858880670375662
 30
0.125
  0
VERTEX
  5
100000D3
  8
VISIBLE
 10
3.099821856170159
 20
0.7900715190558104
 30
0.125
  0
VERTEX
  5
100000D4
  8
VISIBLE
 10
3.043858894611338
 20
0.7936732384162991
 30
0.125
  0
VERTEX
  5
100000D5
  8
VISIBLE
 10
2.975667828649569
 20
0.7965548130638762
 30
0.125
  0
VERTEX
  5
100000D6
  8
VISIBLE
 10
2.897869202707775
 20
0.7986055057008412
 30
0.125
  0
VERTEX
  5
100000D7
  8
VISIBLE
 10
2.813452774350925
 20
0.7997465093591969
 30
0.125
  0
VERTEX
  5
100000D8
  8
VISIBLE
 10
2.725662619579495
 20
0.7999339759082353
 30
0.125
  0
SEQEND
  5
10000227
  8
VISIBLE
  0
LINE
  5
F43E9
  8
VISIBLE
 10
2.725662619579496
 20
0.7499336967563024
 30
0.125
 11
2.725662619579496
 21
0.6433505113413062
 31
0.125
  0
POLYLINE
  5
F43EA
  8
VISIBLE
 66
     1
 10
0.0
 20
0.0
 30
0.125
  0
VERTEX
  5
100000D9
  8
VISIBLE
 10
2.725662619579495
 20
0.5933502321893732
 30
0.125
  0
VERTEX
  5
100000DA
  8
VISIBLE
 10
2.813452774350925
 20
0.5941235069839995
 30
0.125
  0
VERTEX
  5
100000DB
  8
VISIBLE
 10
2.897869202707775
 20
0.5958278066055904
 30
0.125
  0
VERTEX
  5
100000DC
  8
VISIBLE
 10
2.97566782864957
 20
0.5983976357754704
 30
0.125
  0
VERTEX
  5
100000DD
  8
VISIBLE
 10
3.043858894611338
 20
0.6017342373998178
 30
0.125
  0
VERTEX
  5
100000DE
  8
VISIBLE
 10
3.09982185617016
 20
0.6057093877493968
 30
0.125
  0
VERTEX
  5
100000DF
  8
VISIBLE
 10
3.141406088097719
 20
0.6101703240255628
 30
0.125
  0
VERTEX
  5
100000E0
  8
VISIBLE
 10
3.167013531681746
 20
0.614945614948945
 30
0.125
  0
VERTEX
  5
100000E1
  8
VISIBLE
 10
3.175660107226127
 20
0.6198517487673715
 30
0.125
  0
VERTEX
  5
100000E2
  8
VISIBLE
 10
3.167013531681746
 20
0.6247001855095918
 30
0.125
  0
VERTEX
  5
100000E3
  8
VISIBLE
 10
3.141406088097718
 20
0.629304602470637
 30
0.125
  0
VERTEX
  5
100000E4
  8
VISIBLE
 10
3.099821856170159
 20
0.6334880544888812
 30
0.125
  0
VERTEX
  5
100000E5
  8
VISIBLE
 10
3.043858894611338
 20
0.6370897738493699
 30
0.125
  0
VERTEX
  5
100000E6
  8
VISIBLE
 10
2.975667828649569
 20
0.639971348496947
 30
0.125
  0
VERTEX
  5
100000E7
  8
VISIBLE
 10
2.897869202707775
 20
0.642022041133912
 30
0.125
  0
VERTEX
  5
100000E8
  8
VISIBLE
 10
2.813452774350925
 20
0.6431630447922677
 30
0.125
  0
VERTEX
  5
100000E9
  8
VISIBLE
 10
2.725662619579495
 20
0.6433505113413062
 30
0.125
  0
SEQEND
  5
10000228
  8
VISIBLE
  0
LINE
  5
F43EB
  8
VISIBLE
 10
2.725662619579496
 20
0.5933502321893732
 30
0.125
 11
2.725662619579496
 21
-0.1816496282346605
 31
0.125
  0
LINE
  5
F43EC
  8
VISIBLE
 10
2.725662619579496
 20
-0.1816496282346605
 30
0.125
 11
2.975662619579495
 21
-0.1816496282346605
 31
0.125
  0
LINE
  5
F43ED
  8
VISIBLE
 10
2.975662619579495
 20
-0.1816496282346605
 30
0.125
 11
2.975662619579495
 21
-0.0566496282346606
 31
0.125
  0
LINE
  5
F43EE
  8
VISIBLE
 10
2.975662619579495
 20
-0.0566496282346606
 30
0.125
 11
3.156662619579495
 21
-0.0566496282346606
 31
0.125
  0
LINE
  5
F43EF
  8
VISIBLE
 10
3.156662619579495
 20
-0.0566496282346606
 30
0.125
 11
3.156662619579495
 21
0.2135703978165397
 31
0.125
  0
LINE
  5
F43F0
  8
VISIBLE
 10
3.069412619579496
 20
0.2135703978165397
 30
0.125
 11
3.156662619579495
 21
0.2135703978165397
 31
0.125
  0
LINE
  5
F43F1
  8
VISIBLE
 10
3.069412619579496
 20
0.3229453978165398
 30
0.125
 11
3.069412619579496
 21
0.2135703978165397
 31
0.125
  0
LINE
  5
F43F2
  8
VISIBLE
 10
3.069412619579496
 20
0.3229453978165398
 30
0.125
 11
3.156662619579495
 21
0.3229453978165397
 31
0.125
  0
LINE
  5
F43F3
  8
VISIBLE
 10
3.156662619579495
 20
0.3229453978165397
 30
0.125
 11
3.156662619579495
 21
0.4433503717653395
 31
0.125
  0
LINE
  5
F43F4
  8
VISIBLE
 10
3.156662619579495
 20
0.4433503717653395
 30
0.125
 11
3.294662619579495
 21
0.4433503717653395
 31
0.125
  0
LINE
  5
F43F5
  8
VISIBLE
 10
3.294662619579495
 20
0.3229453978165397
 30
0.125
 11
3.294662619579495
 21
0.4433503717653395
 31
0.125
  0
LINE
  5
F43F6
  8
VISIBLE
 10
3.294662619579495
 20
0.3229453978165397
 30
0.125
 11
3.381912619579496
 21
0.3229453978165398
 31
0.125
  0
LINE
  5
F43F7
  8
VISIBLE
 10
3.381912619579496
 20
0.3229453978165398
 30
0.125
 11
3.381912619579496
 21
0.2135703978165397
 31
0.125
  0
LINE
  5
F43F8
  8
VISIBLE
 10
3.294662619579495
 20
0.2135703978165397
 30
0.125
 11
3.381912619579496
 21
0.2135703978165397
 31
0.125
  0
LINE
  5
F43F9
  8
VISIBLE
 10
3.294662619579495
 20
-0.0566496282346605
 30
0.125
 11
3.294662619579495
 21
0.2135703978165397
 31
0.125
  0
LINE
  5
F43FA
  8
VISIBLE
 10
3.294662619579495
 20
-0.0566496282346605
 30
0.125
 11
3.475662619579496
 21
-0.0566496282346606
 31
0.125
  0
LINE
  5
F43FB
  8
VISIBLE
 10
3.475662619579496
 20
-0.1816496282346605
 30
0.125
 11
3.475662619579496
 21
-0.0566496282346606
 31
0.125
  0
LINE
  5
F43FC
  8
VISIBLE
 10
3.475662619579496
 20
-0.1816496282346605
 30
0.125
 11
3.725662619579496
 21
-0.1816496282346605
 31
0.125
  0
LINE
  5
F43FD
  8
VISIBLE
 10
3.725662619579496
 20
0.5933502321893732
 30
0.125
 11
3.725662619579496
 21
-0.1816496282346605
 31
0.125
  0
POLYLINE
  5
F43FE
  8
VISIBLE
 66
     1
 10
0.0
 20
0.0
 30
0.125
  0
VERTEX
  5
100000EA
  8
VISIBLE
 10
3.725662619579496
 20
0.6433505113413062
 30
0.125
  0
VERTEX
  5
100000EB
  8
VISIBLE
 10
3.637872464808066
 20
0.6425772365466799
 30
0.125
  0
VERTEX
  5
100000EC
  8
VISIBLE
 10
3.553456036451216
 20
0.640872936925089
 30
0.125
  0
VERTEX
  5
100000ED
  8
VISIBLE
 10
3.475657410509421
 20
0.6383031077552089
 30
0.125
  0
VERTEX
  5
100000EE
  8
VISIBLE
 10
3.407466344547653
 20
0.6349665061308616
 30
0.125
  0
VERTEX
  5
100000EF
  8
VISIBLE
 10
3.351503382988832
 20
0.6309913557812827
 30
0.125
  0
VERTEX
  5
100000F0
  8
VISIBLE
 10
3.309919151061273
 20
0.6265304195051167
 30
0.125
  0
VERTEX
  5
100000F1
  8
VISIBLE
 10
3.284311707477245
 20
0.6217551285817345
 30
0.125
  0
VERTEX
  5
100000F2
  8
VISIBLE
 10
3.275665131932865
 20
0.616848994763308
 30
0.125
  0
VERTEX
  5
100000F3
  8
VISIBLE
 10
3.284311707477245
 20
0.6120005580210877
 30
0.125
  0
VERTEX
  5
100000F4
  8
VISIBLE
 10
3.309919151061273
 20
0.6073961410600424
 30
0.125
  0
VERTEX
  5
100000F5
  8
VISIBLE
 10
3.351503382988832
 20
0.6032126890417983
 30
0.125
  0
VERTEX
  5
100000F6
  8
VISIBLE
 10
3.407466344547653
 20
0.5996109696813096
 30
0.125
  0
VERTEX
  5
100000F7
  8
VISIBLE
 10
3.475657410509421
 20
0.5967293950337323
 30
0.125
  0
VERTEX
  5
100000F8
  8
VISIBLE
 10
3.553456036451216
 20
0.5946787023967673
 30
0.125
  0
VERTEX
  5
100000F9
  8
VISIBLE
 10
3.637872464808066
 20
0.5935376987384116
 30
0.125
  0
VERTEX
  5
100000FA
  8
VISIBLE
 10
3.725662619579496
 20
0.5933502321893732
 30
0.125
  0
SEQEND
  5
10000229
  8
VISIBLE
  0
LINE
  5
F43FF
  8
VISIBLE
 10
3.725662619579496
 20
0.7499336967563024
 30
0.125
 11
3.725662619579496
 21
0.6433505113413062
 31
0.125
  0
POLYLINE
  5
F4400
  8
VISIBLE
 66
     1
 10
0.0
 20
0.0
 30
0.125
  0
VERTEX
  5
100000FB
  8
VISIBLE
 10
3.725662619579496
 20
0.7999339759082353
 30
0.125
  0
VERTEX
  5
100000FC
  8
VISIBLE
 10
3.637872464808066
 20
0.799160701113609
 30
0.125
  0
VERTEX
  5
100000FD
  8
VISIBLE
 10
3.553456036451216
 20
0.7974564014920181
 30
0.125
  0
VERTEX
  5
100000FE
  8
VISIBLE
 10
3.475657410509421
 20
0.7948865723221381
 30
0.125
  0
VERTEX
  5
100000FF
  8
VISIBLE
 10
3.407466344547653
 20
0.7915499706977908
 30
0.125
  0
VERTEX
  5
10000100
  8
VISIBLE
 10
3.351503382988832
 20
0.7875748203482119
 30
0.125
  0
VERTEX
  5
10000101
  8
VISIBLE
 10
3.309919151061273
 20
0.7831138840720457
 30
0.125
  0
VERTEX
  5
10000102
  8
VISIBLE
 10
3.284311707477245
 20
0.7783385931486637
 30
0.125
  0
VERTEX
  5
10000103
  8
VISIBLE
 10
3.275665131932865
 20
0.7734324593302372
 30
0.125
  0
VERTEX
  5
10000104
  8
VISIBLE
 10
3.284311707477245
 20
0.7685840225880168
 30
0.125
  0
VERTEX
  5
10000105
  8
VISIBLE
 10
3.309919151061273
 20
0.7639796056269715
 30
0.125
  0
VERTEX
  5
10000106
  8
VISIBLE
 10
3.351503382988832
 20
0.7597961536087274
 30
0.125
  0
VERTEX
  5
10000107
  8
VISIBLE
 10
3.407466344547653
 20
0.7561944342482387
 30
0.125
  0
VERTEX
  5
10000108
  8
VISIBLE
 10
3.475657410509421
 20
0.7533128596006615
 30
0.125
  0
VERTEX
  5
10000109
  8
VISIBLE
 10
3.553456036451216
 20
0.7512621669636965
 30
0.125
  0
VERTEX
  5
1000010A
  8
VISIBLE
 10
3.637872464808066
 20
0.7501211633053407
 30
0.125
  0
VERTEX
  5
1000010B
  8
VISIBLE
 10
3.725662619579496
 20
0.7499336967563024
 30
0.125
  0
SEQEND
  5
1000022A
  8
VISIBLE
  0
LINE
  5
F4401
  8
VISIBLE
 10
3.725662619579496
 20
0.9065171613232315
 30
0.125
 11
3.725662619579496
 21
0.7999339759082352
 31
0.125
  0
POLYLINE
  5
F4402
  8
VISIBLE
 66
     1
 10
0.0
 20
0.0
 30
0.125
  0
VERTEX
  5
1000010C
  8
VISIBLE
 10
3.725662619579496
 20
0.9565174404751644
 30
0.125
  0
VERTEX
  5
1000010D
  8
VISIBLE
 10
3.637872464808066
 20
0.9557441656805381
 30
0.125
  0
VERTEX
  5
1000010E
  8
VISIBLE
 10
3.553456036451216
 20
0.9540398660589472
 30
0.125
  0
VERTEX
  5
1000010F
  8
VISIBLE
 10
3.475657410509421
 20
0.9514700368890672
 30
0.125
  0
VERTEX
  5
10000110
  8
VISIBLE
 10
3.407466344547653
 20
0.9481334352647198
 30
0.125
  0
VERTEX
  5
10000111
  8
VISIBLE
 10
3.351503382988832
 20
0.944158284915141
 30
0.125
  0
VERTEX
  5
10000112
  8
VISIBLE
 10
3.309919151061273
 20
0.9396973486389748
 30
0.125
  0
VERTEX
  5
10000113
  8
VISIBLE
 10
3.284311707477245
 20
0.9349220577155928
 30
0.125
  0
VERTEX
  5
10000114
  8
VISIBLE
 10
3.275665131932865
 20
0.9300159238971663
 30
0.125
  0
VERTEX
  5
10000115
  8
VISIBLE
 10
3.284311707477245
 20
0.9251674871549459
 30
0.125
  0
VERTEX
  5
10000116
  8
VISIBLE
 10
3.309919151061273
 20
0.9205630701939006
 30
0.125
  0
VERTEX
  5
10000117
  8
VISIBLE
 10
3.351503382988832
 20
0.9163796181756565
 30
0.125
  0
VERTEX
  5
10000118
  8
VISIBLE
 10
3.407466344547653
 20
0.9127778988151678
 30
0.125
  0
VERTEX
  5
10000119
  8
VISIBLE
 10
3.475657410509421
 20
0.9098963241675906
 30
0.125
  0
VERTEX
  5
1000011A
  8
VISIBLE
 10
3.553456036451216
 20
0.9078456315306256
 30
0.125
  0
VERTEX
  5
1000011B
  8
VISIBLE
 10
3.637872464808066
 20
0.9067046278722698
 30
0.125
  0
VERTEX
  5
1000011C
  8
VISIBLE
 10
3.725662619579496
 20
0.9065171613232315
 30
0.125
  0
SEQEND
  5
1000022B
  8
VISIBLE
  0
LINE
  5
F4403
  8
VISIBLE
 10
3.725662619579496
 20
1.063100625890161
 30
0.125
 11
3.725662619579496
 21
0.9565174404751644
 31
0.125
  0
POLYLINE
  5
F4404
  8
VISIBLE
 66
     1
 10
0.0
 20
0.0
 30
0.125
  0
VERTEX
  5
1000011D
  8
VISIBLE
 10
3.725662619579496
 20
1.113100905042093
 30
0.125
  0
VERTEX
  5
1000011E
  8
VISIBLE
 10
3.637872464808066
 20
1.112327630247467
 30
0.125
  0
VERTEX
  5
1000011F
  8
VISIBLE
 10
3.553456036451216
 20
1.110623330625876
 30
0.125
  0
VERTEX
  5
10000120
  8
VISIBLE
 10
3.475657410509421
 20
1.108053501455996
 30
0.125
  0
VERTEX
  5
10000121
  8
VISIBLE
 10
3.407466344547653
 20
1.104716899831649
 30
0.125
  0
VERTEX
  5
10000122
  8
VISIBLE
 10
3.351503382988832
 20
1.10074174948207
 30
0.125
  0
VERTEX
  5
10000123
  8
VISIBLE
 10
3.309919151061273
 20
1.096280813205904
 30
0.125
  0
VERTEX
  5
10000124
  8
VISIBLE
 10
3.284311707477245
 20
1.091505522282522
 30
0.125
  0
VERTEX
  5
10000125
  8
VISIBLE
 10
3.275665131932865
 20
1.086599388464095
 30
0.125
  0
VERTEX
  5
10000126
  8
VISIBLE
 10
3.284311707477245
 20
1.081750951721875
 30
0.125
  0
VERTEX
  5
10000127
  8
VISIBLE
 10
3.309919151061273
 20
1.07714653476083
 30
0.125
  0
VERTEX
  5
10000128
  8
VISIBLE
 10
3.351503382988832
 20
1.072963082742585
 30
0.125
  0
VERTEX
  5
10000129
  8
VISIBLE
 10
3.407466344547653
 20
1.069361363382097
 30
0.125
  0
VERTEX
  5
1000012A
  8
VISIBLE
 10
3.475657410509421
 20
1.06647978873452
 30
0.125
  0
VERTEX
  5
1000012B
  8
VISIBLE
 10
3.553456036451216
 20
1.064429096097555
 30
0.125
  0
VERTEX
  5
1000012C
  8
VISIBLE
 10
3.637872464808066
 20
1.063288092439199
 30
0.125
  0
VERTEX
  5
1000012D
  8
VISIBLE
 10
3.725662619579496
 20
1.063100625890161
 30
0.125
  0
SEQEND
  5
1000022C
  8
VISIBLE
  0
LINE
  5
F4405
  8
VISIBLE
 10
3.725662619579496
 20
1.21968409045709
 30
0.125
 11
3.725662619579496
 21
1.113100905042094
 31
0.125
  0
POLYLINE
  5
F4406
  8
VISIBLE
 66
     1
 10
0.0
 20
0.0
 30
0.125
  0
VERTEX
  5
1000012E
  8
VISIBLE
 10
3.725662619579496
 20
1.269684369609023
 30
0.125
  0
VERTEX
  5
1000012F
  8
VISIBLE
 10
3.637872464808066
 20
1.268911094814396
 30
0.125
  0
VERTEX
  5
10000130
  8
VISIBLE
 10
3.553456036451216
 20
1.267206795192805
 30
0.125
  0
VERTEX
  5
10000131
  8
VISIBLE
 10
3.475657410509421
 20
1.264636966022926
 30
0.125
  0
VERTEX
  5
10000132
  8
VISIBLE
 10
3.407466344547653
 20
1.261300364398578
 30
0.125
  0
VERTEX
  5
10000133
  8
VISIBLE
 10
3.351503382988832
 20
1.257325214048999
 30
0.125
  0
VERTEX
  5
10000134
  8
VISIBLE
 10
3.309919151061273
 20
1.252864277772833
 30
0.125
  0
VERTEX
  5
10000135
  8
VISIBLE
 10
3.284311707477245
 20
1.248088986849451
 30
0.125
  0
VERTEX
  5
10000136
  8
VISIBLE
 10
3.275665131932865
 20
1.243182853031025
 30
0.125
  0
VERTEX
  5
10000137
  8
VISIBLE
 10
3.284311707477245
 20
1.238334416288804
 30
0.125
  0
VERTEX
  5
10000138
  8
VISIBLE
 10
3.309919151061273
 20
1.233729999327759
 30
0.125
  0
VERTEX
  5
10000139
  8
VISIBLE
 10
3.351503382988832
 20
1.229546547309515
 30
0.125
  0
VERTEX
  5
1000013A
  8
VISIBLE
 10
3.407466344547653
 20
1.225944827949026
 30
0.125
  0
VERTEX
  5
1000013B
  8
VISIBLE
 10
3.475657410509421
 20
1.223063253301449
 30
0.125
  0
VERTEX
  5
1000013C
  8
VISIBLE
 10
3.553456036451216
 20
1.221012560664484
 30
0.125
  0
VERTEX
  5
1000013D
  8
VISIBLE
 10
3.637872464808066
 20
1.219871557006128
 30
0.125
  0
VERTEX
  5
1000013E
  8
VISIBLE
 10
3.725662619579496
 20
1.21968409045709
 30
0.125
  0
SEQEND
  5
1000022D
  8
VISIBLE
  0
LINE
  5
F4407
  8
VISIBLE
 10
3.725662619579496
 20
1.376267555024019
 30
0.125
 11
3.725662619579496
 21
1.269684369609023
 31
0.125
  0
POLYLINE
  5
F4408
  8
VISIBLE
 66
     1
 10
0.0
 20
0.0
 30
0.125
  0
VERTEX
  5
1000013F
  8
VISIBLE
 10
3.725662619579496
 20
1.426267834175952
 30
0.125
  0
VERTEX
  5
10000140
  8
VISIBLE
 10
3.637872464808066
 20
1.425494559381326
 30
0.125
  0
VERTEX
  5
10000141
  8
VISIBLE
 10
3.553456036451216
 20
1.423790259759735
 30
0.125
  0
VERTEX
  5
10000142
  8
VISIBLE
 10
3.475657410509421
 20
1.421220430589855
 30
0.125
  0
VERTEX
  5
10000143
  8
VISIBLE
 10
3.407466344547653
 20
1.417883828965507
 30
0.125
  0
VERTEX
  5
10000144
  8
VISIBLE
 10
3.351503382988832
 20
1.413908678615929
 30
0.125
  0
VERTEX
  5
10000145
  8
VISIBLE
 10
3.309919151061273
 20
1.409447742339762
 30
0.125
  0
VERTEX
  5
10000146
  8
VISIBLE
 10
3.284311707477245
 20
1.40467245141638
 30
0.125
  0
VERTEX
  5
10000147
  8
VISIBLE
 10
3.275665131932865
 20
1.399766317597954
 30
0.125
  0
VERTEX
  5
10000148
  8
VISIBLE
 10
3.284311707477245
 20
1.394917880855733
 30
0.125
  0
VERTEX
  5
10000149
  8
VISIBLE
 10
3.309919151061273
 20
1.390313463894688
 30
0.125
  0
VERTEX
  5
1000014A
  8
VISIBLE
 10
3.351503382988832
 20
1.386130011876444
 30
0.125
  0
VERTEX
  5
1000014B
  8
VISIBLE
 10
3.407466344547653
 20
1.382528292515955
 30
0.125
  0
VERTEX
  5
1000014C
  8
VISIBLE
 10
3.475657410509421
 20
1.379646717868378
 30
0.125
  0
VERTEX
  5
1000014D
  8
VISIBLE
 10
3.553456036451216
 20
1.377596025231413
 30
0.125
  0
VERTEX
  5
1000014E
  8
VISIBLE
 10
3.637872464808066
 20
1.376455021573057
 30
0.125
  0
VERTEX
  5
1000014F
  8
VISIBLE
 10
3.725662619579496
 20
1.376267555024019
 30
0.125
  0
SEQEND
  5
1000022E
  8
VISIBLE
  0
LINE
  5
F4409
  8
VISIBLE
 10
3.725662619579496
 20
1.81835037176534
 30
0.125
 11
3.725662619579496
 21
1.426267834175952
 31
0.125
  0
LINE
  5
F440A
  8
VISIBLE
 10
2.725662619579496
 20
1.81835037176534
 30
0.125
 11
3.725662619579496
 21
1.81835037176534
 31
0.125
  0
LINE
  5
F440B
  8
VISIBLE
 10
2.725662619579496
 20
1.81835037176534
 30
0.125
 11
2.725662619579496
 21
1.426267834175952
 31
0.125
  0
POLYLINE
  5
F440C
  8
VISIBLE
 66
     1
 10
0.0
 20
0.0
 30
0.125
  0
VERTEX
  5
10000150
  8
VISIBLE
 10
2.725662619579495
 20
1.376267555024019
 30
0.125
  0
VERTEX
  5
10000151
  8
VISIBLE
 10
2.813452774350925
 20
1.377040829818645
 30
0.125
  0
VERTEX
  5
10000152
  8
VISIBLE
 10
2.897869202707775
 20
1.378745129440236
 30
0.125
  0
VERTEX
  5
10000153
  8
VISIBLE
 10
2.97566782864957
 20
1.381314958610116
 30
0.125
  0
VERTEX
  5
10000154
  8
VISIBLE
 10
3.043858894611338
 20
1.384651560234464
 30
0.125
  0
VERTEX
  5
10000155
  8
VISIBLE
 10
3.09982185617016
 20
1.388626710584043
 30
0.125
  0
VERTEX
  5
10000156
  8
VISIBLE
 10
3.141406088097719
 20
1.393087646860209
 30
0.125
  0
VERTEX
  5
10000157
  8
VISIBLE
 10
3.167013531681746
 20
1.397862937783591
 30
0.125
  0
VERTEX
  5
10000158
  8
VISIBLE
 10
3.175660107226127
 20
1.402769071602017
 30
0.125
  0
VERTEX
  5
10000159
  8
VISIBLE
 10
3.167013531681746
 20
1.407617508344238
 30
0.125
  0
VERTEX
  5
1000015A
  8
VISIBLE
 10
3.141406088097718
 20
1.412221925305283
 30
0.125
  0
VERTEX
  5
1000015B
  8
VISIBLE
 10
3.099821856170159
 20
1.416405377323527
 30
0.125
  0
VERTEX
  5
1000015C
  8
VISIBLE
 10
3.043858894611338
 20
1.420007096684016
 30
0.125
  0
VERTEX
  5
1000015D
  8
VISIBLE
 10
2.975667828649569
 20
1.422888671331593
 30
0.125
  0
VERTEX
  5
1000015E
  8
VISIBLE
 10
2.897869202707775
 20
1.424939363968558
 30
0.125
  0
VERTEX
  5
1000015F
  8
VISIBLE
 10
2.813452774350925
 20
1.426080367626914
 30
0.125
  0
VERTEX
  5
10000160
  8
VISIBLE
 10
2.725662619579495
 20
1.426267834175952
 30
0.125
  0
SEQEND
  5
1000022F
  8
VISIBLE
  0
LINE
  5
F440D
  8
VISIBLE
 10
2.725662619579496
 20
1.376267555024019
 30
0.125
 11
2.725662619579496
 21
1.269684369609023
 31
0.125
  0
POLYLINE
  5
F440E
  8
VISIBLE
 66
     1
 10
0.0
 20
0.0
 30
0.125
  0
VERTEX
  5
10000161
  8
VISIBLE
 10
2.725662619579495
 20
1.21968409045709
 30
0.125
  0
VERTEX
  5
10000162
  8
VISIBLE
 10
2.813452774350925
 20
1.220457365251716
 30
0.125
  0
VERTEX
  5
10000163
  8
VISIBLE
 10
2.897869202707775
 20
1.222161664873307
 30
0.125
  0
VERTEX
  5
10000164
  8
VISIBLE
 10
2.97566782864957
 20
1.224731494043187
 30
0.125
  0
VERTEX
  5
10000165
  8
VISIBLE
 10
3.043858894611338
 20
1.228068095667534
 30
0.125
  0
VERTEX
  5
10000166
  8
VISIBLE
 10
3.09982185617016
 20
1.232043246017113
 30
0.125
  0
VERTEX
  5
10000167
  8
VISIBLE
 10
3.141406088097719
 20
1.236504182293279
 30
0.125
  0
VERTEX
  5
10000168
  8
VISIBLE
 10
3.167013531681746
 20
1.241279473216661
 30
0.125
  0
VERTEX
  5
10000169
  8
VISIBLE
 10
3.175660107226127
 20
1.246185607035088
 30
0.125
  0
VERTEX
  5
1000016A
  8
VISIBLE
 10
3.167013531681746
 20
1.251034043777308
 30
0.125
  0
VERTEX
  5
1000016B
  8
VISIBLE
 10
3.141406088097718
 20
1.255638460738354
 30
0.125
  0
VERTEX
  5
1000016C
  8
VISIBLE
 10
3.099821856170159
 20
1.259821912756598
 30
0.125
  0
VERTEX
  5
1000016D
  8
VISIBLE
 10
3.043858894611338
 20
1.263423632117086
 30
0.125
  0
VERTEX
  5
1000016E
  8
VISIBLE
 10
2.975667828649569
 20
1.266305206764664
 30
0.125
  0
VERTEX
  5
1000016F
  8
VISIBLE
 10
2.897869202707775
 20
1.268355899401629
 30
0.125
  0
VERTEX
  5
10000170
  8
VISIBLE
 10
2.813452774350925
 20
1.269496903059985
 30
0.125
  0
VERTEX
  5
10000171
  8
VISIBLE
 10
2.725662619579495
 20
1.269684369609023
 30
0.125
  0
SEQEND
  5
10000230
  8
VISIBLE
  0
LINE
  5
F440F
  8
VISIBLE
 10
2.725662619579496
 20
1.21968409045709
 30
0.125
 11
2.725662619579496
 21
1.113100905042094
 31
0.125
  0
POLYLINE
  5
F4410
  8
VISIBLE
 66
     1
 10
0.0
 20
0.0
 30
0.125
  0
VERTEX
  5
10000172
  8
VISIBLE
 10
2.725662619579495
 20
1.063100625890161
 30
0.125
  0
VERTEX
  5
10000173
  8
VISIBLE
 10
2.813452774350925
 20
1.063873900684787
 30
0.125
  0
VERTEX
  5
10000174
  8
VISIBLE
 10
2.897869202707775
 20
1.065578200306378
 30
0.125
  0
VERTEX
  5
10000175
  8
VISIBLE
 10
2.97566782864957
 20
1.068148029476258
 30
0.125
  0
VERTEX
  5
10000176
  8
VISIBLE
 10
3.043858894611338
 20
1.071484631100605
 30
0.125
  0
VERTEX
  5
10000177
  8
VISIBLE
 10
3.09982185617016
 20
1.075459781450184
 30
0.125
  0
VERTEX
  5
10000178
  8
VISIBLE
 10
3.141406088097719
 20
1.07992071772635
 30
0.125
  0
VERTEX
  5
10000179
  8
VISIBLE
 10
3.167013531681746
 20
1.084696008649732
 30
0.125
  0
VERTEX
  5
1000017A
  8
VISIBLE
 10
3.175660107226127
 20
1.089602142468159
 30
0.125
  0
VERTEX
  5
1000017B
  8
VISIBLE
 10
3.167013531681746
 20
1.094450579210379
 30
0.125
  0
VERTEX
  5
1000017C
  8
VISIBLE
 10
3.141406088097718
 20
1.099054996171424
 30
0.125
  0
VERTEX
  5
1000017D
  8
VISIBLE
 10
3.099821856170159
 20
1.103238448189669
 30
0.125
  0
VERTEX
  5
1000017E
  8
VISIBLE
 10
3.043858894611338
 20
1.106840167550157
 30
0.125
  0
VERTEX
  5
1000017F
  8
VISIBLE
 10
2.975667828649569
 20
1.109721742197734
 30
0.125
  0
VERTEX
  5
10000180
  8
VISIBLE
 10
2.897869202707775
 20
1.111772434834699
 30
0.125
  0
VERTEX
  5
10000181
  8
VISIBLE
 10
2.813452774350925
 20
1.112913438493055
 30
0.125
  0
VERTEX
  5
10000182
  8
VISIBLE
 10
2.725662619579495
 20
1.113100905042093
 30
0.125
  0
SEQEND
  5
10000231
  8
VISIBLE
  0
LINE
  5
F4411
  8
VISIBLE
 10
2.725662619579496
 20
1.063100625890161
 30
0.125
 11
2.725662619579496
 21
0.9565174404751644
 31
0.125
  0
POLYLINE
  5
F4412
  8
VISIBLE
 66
     1
 10
0.0
 20
0.0
 30
0.125
 70
     1
  0
VERTEX
  5
10000183
  8
VISIBLE
 10
3.675662619579495
 20
0.6943790051411457
 30
0.125
  0
VERTEX
  5
10000184
  8
VISIBLE
 10
3.667015995760949
 20
0.6995787543407502
 30
0.125
  0
VERTEX
  5
10000185
  8
VISIBLE
 10
3.641408409209574
 20
0.704578680094667
 30
0.125
  0
VERTEX
  5
10000186
  8
VISIBLE
 10
3.599823945115641
 20
0.7091866380601635
 30
0.125
  0
VERTEX
  5
10000187
  8
VISIBLE
 10
3.543860671113442
 20
0.7132255469967983
 30
0.125
  0
VERTEX
  5
10000188
  8
VISIBLE
 10
3.475669224438316
 20
0.7165401938991829
 30
0.125
  0
VERTEX
  5
10000189
  8
VISIBLE
 10
3.397870164143786
 20
0.7190031987457338
 30
0.125
  0
VERTEX
  5
1000018A
  8
VISIBLE
 10
3.313453264486753
 20
0.7205199096414674
 30
0.125
  0
VERTEX
  5
1000018B
  8
VISIBLE
 10
3.225662619579495
 20
0.7210320402372418
 30
0.125
  0
VERTEX
  5
1000018C
  8
VISIBLE
 10
3.137871974672237
 20
0.7205199096414674
 30
0.125
  0
VERTEX
  5
1000018D
  8
VISIBLE
 10
3.053455075015205
 20
0.7190031987457338
 30
0.125
  0
VERTEX
  5
1000018E
  8
VISIBLE
 10
2.975656014720674
 20
0.7165401938991827
 30
0.125
  0
VERTEX
  5
1000018F
  8
VISIBLE
 10
2.907464568045548
 20
0.7132255469967981
 30
0.125
  0
VERTEX
  5
10000190
  8
VISIBLE
 10
2.85150129404335
 20
0.7091866380601632
 30
0.125
  0
VERTEX
  5
10000191
  8
VISIBLE
 10
2.809916829949416
 20
0.7045786800946667
 30
0.125
  0
VERTEX
  5
10000192
  8
VISIBLE
 10
2.784309243398041
 20
0.69957875434075
 30
0.125
  0
VERTEX
  5
10000193
  8
VISIBLE
 10
2.775662619579495
 20
0.6943790051411455
 30
0.125
  0
VERTEX
  5
10000194
  8
VISIBLE
 10
2.784309243398041
 20
0.6891792559415408
 30
0.125
  0
VERTEX
  5
10000195
  8
VISIBLE
 10
2.809916829949416
 20
0.6841793301876242
 30
0.125
  0
VERTEX
  5
10000196
  8
VISIBLE
 10
2.85150129404335
 20
0.6795713722221277
 30
0.125
  0
VERTEX
  5
10000197
  8
VISIBLE
 10
2.907464568045549
 20
0.6755324632854929
 30
0.125
  0
VERTEX
  5
10000198
  8
VISIBLE
 10
2.975656014720674
 20
0.6722178163831083
 30
0.125
  0
VERTEX
  5
10000199
  8
VISIBLE
 10
3.053455075015205
 20
0.6697548115365574
 30
0.125
  0
VERTEX
  5
1000019A
  8
VISIBLE
 10
3.137871974672238
 20
0.6682381006408238
 30
0.125
  0
VERTEX
  5
1000019B
  8
VISIBLE
 10
3.225662619579496
 20
0.6677259700450494
 30
0.125
  0
VERTEX
  5
1000019C
  8
VISIBLE
 10
3.313453264486754
 20
0.6682381006408238
 30
0.125
  0
VERTEX
  5
1000019D
  8
VISIBLE
 10
3.397870164143787
 20
0.6697548115365574
 30
0.125
  0
VERTEX
  5
1000019E
  8
VISIBLE
 10
3.475669224438318
 20
0.6722178163831085
 30
0.125
  0
VERTEX
  5
1000019F
  8
VISIBLE
 10
3.543860671113443
 20
0.6755324632854931
 30
0.125
  0
VERTEX
  5
100001A0
  8
VISIBLE
 10
3.599823945115642
 20
0.679571372222128
 30
0.125
  0
VERTEX
  5
100001A1
  8
VISIBLE
 10
3.641408409209575
 20
0.6841793301876246
 30
0.125
  0
VERTEX
  5
100001A2
  8
VISIBLE
 10
3.667015995760949
 20
0.6891792559415413
 30
0.125
  0
SEQEND
  5
10000232
  8
VISIBLE
  0
POLYLINE
  5
F4413
  8
VISIBLE
 66
     1
 10
0.0
 20
0.0
 30
0.125
 70
     1
  0
VERTEX
  5
100001A3
  8
VISIBLE
 10
3.675662619579495
 20
0.8509624697080749
 30
0.125
  0
VERTEX
  5
100001A4
  8
VISIBLE
 10
3.667015995760949
 20
0.8561622189076794
 30
0.125
  0
VERTEX
  5
100001A5
  8
VISIBLE
 10
3.641408409209574
 20
0.8611621446615961
 30
0.125
  0
VERTEX
  5
100001A6
  8
VISIBLE
 10
3.599823945115641
 20
0.8657701026270926
 30
0.125
  0
VERTEX
  5
100001A7
  8
VISIBLE
 10
3.543860671113442
 20
0.8698090115637275
 30
0.125
  0
VERTEX
  5
100001A8
  8
VISIBLE
 10
3.475669224438316
 20
0.8731236584661121
 30
0.125
  0
VERTEX
  5
100001A9
  8
VISIBLE
 10
3.397870164143786
 20
0.875586663312663
 30
0.125
  0
VERTEX
  5
100001AA
  8
VISIBLE
 10
3.313453264486753
 20
0.8771033742083966
 30
0.125
  0
VERTEX
  5
100001AB
  8
VISIBLE
 10
3.225662619579495
 20
0.8776155048041709
 30
0.125
  0
VERTEX
  5
100001AC
  8
VISIBLE
 10
3.137871974672237
 20
0.8771033742083966
 30
0.125
  0
VERTEX
  5
100001AD
  8
VISIBLE
 10
3.053455075015205
 20
0.875586663312663
 30
0.125
  0
VERTEX
  5
100001AE
  8
VISIBLE
 10
2.975656014720674
 20
0.8731236584661118
 30
0.125
  0
VERTEX
  5
100001AF
  8
VISIBLE
 10
2.907464568045548
 20
0.8698090115637273
 30
0.125
  0
VERTEX
  5
100001B0
  8
VISIBLE
 10
2.85150129404335
 20
0.8657701026270924
 30
0.125
  0
VERTEX
  5
100001B1
  8
VISIBLE
 10
2.809916829949416
 20
0.8611621446615959
 30
0.125
  0
VERTEX
  5
100001B2
  8
VISIBLE
 10
2.784309243398041
 20
0.8561622189076792
 30
0.125
  0
VERTEX
  5
100001B3
  8
VISIBLE
 10
2.775662619579495
 20
0.8509624697080747
 30
0.125
  0
VERTEX
  5
100001B4
  8
VISIBLE
 10
2.784309243398041
 20
0.84576272050847
 30
0.125
  0
VERTEX
  5
100001B5
  8
VISIBLE
 10
2.809916829949416
 20
0.8407627947545534
 30
0.125
  0
VERTEX
  5
100001B6
  8
VISIBLE
 10
2.85150129404335
 20
0.8361548367890569
 30
0.125
  0
VERTEX
  5
100001B7
  8
VISIBLE
 10
2.907464568045549
 20
0.832115927852422
 30
0.125
  0
VERTEX
  5
100001B8
  8
VISIBLE
 10
2.975656014720674
 20
0.8288012809500375
 30
0.125
  0
VERTEX
  5
100001B9
  8
VISIBLE
 10
3.053455075015205
 20
0.8263382761034865
 30
0.125
  0
VERTEX
  5
100001BA
  8
VISIBLE
 10
3.137871974672238
 20
0.824821565207753
 30
0.125
  0
VERTEX
  5
100001BB
  8
VISIBLE
 10
3.225662619579496
 20
0.8243094346119786
 30
0.125
  0
VERTEX
  5
100001BC
  8
VISIBLE
 10
3.313453264486754
 20
0.824821565207753
 30
0.125
  0
VERTEX
  5
100001BD
  8
VISIBLE
 10
3.397870164143787
 20
0.8263382761034865
 30
0.125
  0
VERTEX
  5
100001BE
  8
VISIBLE
 10
3.475669224438318
 20
0.8288012809500377
 30
0.125
  0
VERTEX
  5
100001BF
  8
VISIBLE
 10
3.543860671113443
 20
0.8321159278524223
 30
0.125
  0
VERTEX
  5
100001C0
  8
VISIBLE
 10
3.599823945115642
 20
0.8361548367890572
 30
0.125
  0
VERTEX
  5
100001C1
  8
VISIBLE
 10
3.641408409209575
 20
0.8407627947545537
 30
0.125
  0
VERTEX
  5
100001C2
  8
VISIBLE
 10
3.667015995760949
 20
0.8457627205084705
 30
0.125
  0
SEQEND
  5
10000233
  8
VISIBLE
  0
POLYLINE
  5
F4414
  8
VISIBLE
 66
     1
 10
0.0
 20
0.0
 30
0.125
 70
     1
  0
VERTEX
  5
100001C3
  8
VISIBLE
 10
3.675662619579495
 20
1.007545934275004
 30
0.125
  0
VERTEX
  5
100001C4
  8
VISIBLE
 10
3.667015995760949
 20
1.012745683474609
 30
0.125
  0
VERTEX
  5
100001C5
  8
VISIBLE
 10
3.641408409209574
 20
1.017745609228526
 30
0.125
  0
VERTEX
  5
100001C6
  8
VISIBLE
 10
3.599823945115641
 20
1.022353567194022
 30
0.125
  0
VERTEX
  5
100001C7
  8
VISIBLE
 10
3.543860671113442
 20
1.026392476130657
 30
0.125
  0
VERTEX
  5
100001C8
  8
VISIBLE
 10
3.475669224438316
 20
1.029707123033041
 30
0.125
  0
VERTEX
  5
100001C9
  8
VISIBLE
 10
3.397870164143786
 20
1.032170127879592
 30
0.125
  0
VERTEX
  5
100001CA
  8
VISIBLE
 10
3.313453264486753
 20
1.033686838775326
 30
0.125
  0
VERTEX
  5
100001CB
  8
VISIBLE
 10
3.225662619579495
 20
1.0341989693711
 30
0.125
  0
VERTEX
  5
100001CC
  8
VISIBLE
 10
3.137871974672237
 20
1.033686838775326
 30
0.125
  0
VERTEX
  5
100001CD
  8
VISIBLE
 10
3.053455075015205
 20
1.032170127879592
 30
0.125
  0
VERTEX
  5
100001CE
  8
VISIBLE
 10
2.975656014720674
 20
1.029707123033041
 30
0.125
  0
VERTEX
  5
100001CF
  8
VISIBLE
 10
2.907464568045548
 20
1.026392476130657
 30
0.125
  0
VERTEX
  5
100001D0
  8
VISIBLE
 10
2.85150129404335
 20
1.022353567194021
 30
0.125
  0
VERTEX
  5
100001D1
  8
VISIBLE
 10
2.809916829949416
 20
1.017745609228525
 30
0.125
  0
VERTEX
  5
100001D2
  8
VISIBLE
 10
2.784309243398041
 20
1.012745683474608
 30
0.125
  0
VERTEX
  5
100001D3
  8
VISIBLE
 10
2.775662619579495
 20
1.007545934275004
 30
0.125
  0
VERTEX
  5
100001D4
  8
VISIBLE
 10
2.784309243398041
 20
1.002346185075399
 30
0.125
  0
VERTEX
  5
100001D5
  8
VISIBLE
 10
2.809916829949416
 20
0.9973462593214825
 30
0.125
  0
VERTEX
  5
100001D6
  8
VISIBLE
 10
2.85150129404335
 20
0.992738301355986
 30
0.125
  0
VERTEX
  5
100001D7
  8
VISIBLE
 10
2.907464568045549
 20
0.9886993924193513
 30
0.125
  0
VERTEX
  5
100001D8
  8
VISIBLE
 10
2.975656014720674
 20
0.9853847455169668
 30
0.125
  0
VERTEX
  5
100001D9
  8
VISIBLE
 10
3.053455075015205
 20
0.9829217406704157
 30
0.125
  0
VERTEX
  5
100001DA
  8
VISIBLE
 10
3.137871974672238
 20
0.9814050297746821
 30
0.125
  0
VERTEX
  5
100001DB
  8
VISIBLE
 10
3.225662619579496
 20
0.9808928991789078
 30
0.125
  0
VERTEX
  5
100001DC
  8
VISIBLE
 10
3.313453264486754
 20
0.9814050297746821
 30
0.125
  0
VERTEX
  5
100001DD
  8
VISIBLE
 10
3.397870164143787
 20
0.9829217406704157
 30
0.125
  0
VERTEX
  5
100001DE
  8
VISIBLE
 10
3.475669224438318
 20
0.9853847455169668
 30
0.125
  0
VERTEX
  5
100001DF
  8
VISIBLE
 10
3.543860671113443
 20
0.9886993924193513
 30
0.125
  0
VERTEX
  5
100001E0
  8
VISIBLE
 10
3.599823945115642
 20
0.9927383013559865
 30
0.125
  0
VERTEX
  5
100001E1
  8
VISIBLE
 10
3.641408409209575
 20
0.997346259321483
 30
0.125
  0
VERTEX
  5
100001E2
  8
VISIBLE
 10
3.667015995760949
 20
1.0023461850754
 30
0.125
  0
SEQEND
  5
10000234
  8
VISIBLE
  0
POLYLINE
  5
F4415
  8
VISIBLE
 66
     1
 10
0.0
 20
0.0
 30
0.125
 70
     1
  0
VERTEX
  5
100001E3
  8
VISIBLE
 10
3.675662619579495
 20
1.164129398841933
 30
0.125
  0
VERTEX
  5
100001E4
  8
VISIBLE
 10
3.667015995760949
 20
1.169329148041538
 30
0.125
  0
VERTEX
  5
100001E5
  8
VISIBLE
 10
3.641408409209574
 20
1.174329073795455
 30
0.125
  0
VERTEX
  5
100001E6
  8
VISIBLE
 10
3.599823945115641
 20
1.178937031760951
 30
0.125
  0
VERTEX
  5
100001E7
  8
VISIBLE
 10
3.543860671113442
 20
1.182975940697586
 30
0.125
  0
VERTEX
  5
100001E8
  8
VISIBLE
 10
3.475669224438316
 20
1.18629058759997
 30
0.125
  0
VERTEX
  5
100001E9
  8
VISIBLE
 10
3.397870164143786
 20
1.188753592446521
 30
0.125
  0
VERTEX
  5
100001EA
  8
VISIBLE
 10
3.313453264486753
 20
1.190270303342255
 30
0.125
  0
VERTEX
  5
100001EB
  8
VISIBLE
 10
3.225662619579495
 20
1.190782433938029
 30
0.125
  0
VERTEX
  5
100001EC
  8
VISIBLE
 10
3.137871974672237
 20
1.190270303342255
 30
0.125
  0
VERTEX
  5
100001ED
  8
VISIBLE
 10
3.053455075015205
 20
1.188753592446521
 30
0.125
  0
VERTEX
  5
100001EE
  8
VISIBLE
 10
2.975656014720674
 20
1.18629058759997
 30
0.125
  0
VERTEX
  5
100001EF
  8
VISIBLE
 10
2.907464568045548
 20
1.182975940697586
 30
0.125
  0
VERTEX
  5
100001F0
  8
VISIBLE
 10
2.85150129404335
 20
1.17893703176095
 30
0.125
  0
VERTEX
  5
100001F1
  8
VISIBLE
 10
2.809916829949416
 20
1.174329073795454
 30
0.125
  0
VERTEX
  5
100001F2
  8
VISIBLE
 10
2.784309243398041
 20
1.169329148041537
 30
0.125
  0
VERTEX
  5
100001F3
  8
VISIBLE
 10
2.775662619579495
 20
1.164129398841933
 30
0.125
  0
VERTEX
  5
100001F4
  8
VISIBLE
 10
2.784309243398041
 20
1.158929649642328
 30
0.125
  0
VERTEX
  5
100001F5
  8
VISIBLE
 10
2.809916829949416
 20
1.153929723888411
 30
0.125
  0
VERTEX
  5
100001F6
  8
VISIBLE
 10
2.85150129404335
 20
1.149321765922915
 30
0.125
  0
VERTEX
  5
100001F7
  8
VISIBLE
 10
2.907464568045549
 20
1.14528285698628
 30
0.125
  0
VERTEX
  5
100001F8
  8
VISIBLE
 10
2.975656014720674
 20
1.141968210083896
 30
0.125
  0
VERTEX
  5
100001F9
  8
VISIBLE
 10
3.053455075015205
 20
1.139505205237345
 30
0.125
  0
VERTEX
  5
100001FA
  8
VISIBLE
 10
3.137871974672238
 20
1.137988494341611
 30
0.125
  0
VERTEX
  5
100001FB
  8
VISIBLE
 10
3.225662619579496
 20
1.137476363745837
 30
0.125
  0
VERTEX
  5
100001FC
  8
VISIBLE
 10
3.313453264486754
 20
1.137988494341611
 30
0.125
  0
VERTEX
  5
100001FD
  8
VISIBLE
 10
3.397870164143787
 20
1.139505205237345
 30
0.125
  0
VERTEX
  5
100001FE
  8
VISIBLE
 10
3.475669224438318
 20
1.141968210083896
 30
0.125
  0
VERTEX
  5
100001FF
  8
VISIBLE
 10
3.543860671113443
 20
1.145282856986281
 30
0.125
  0
VERTEX
  5
10000200
  8
VISIBLE
 10
3.599823945115642
 20
1.149321765922916
 30
0.125
  0
VERTEX
  5
10000201
  8
VISIBLE
 10
3.641408409209575
 20
1.153929723888412
 30
0.125
  0
VERTEX
  5
10000202
  8
VISIBLE
 10
3.667015995760949
 20
1.158929649642329
 30
0.125
  0
SEQEND
  5
10000235
  8
VISIBLE
  0
POLYLINE
  5
F4416
  8
VISIBLE
 66
     1
 10
0.0
 20
0.0
 30
0.125
 70
     1
  0
VERTEX
  5
10000203
  8
VISIBLE
 10
3.675662619579495
 20
1.320712863408863
 30
0.125
  0
VERTEX
  5
10000204
  8
VISIBLE
 10
3.667015995760949
 20
1.325912612608467
 30
0.125
  0
VERTEX
  5
10000205
  8
VISIBLE
 10
3.641408409209574
 20
1.330912538362384
 30
0.125
  0
VERTEX
  5
10000206
  8
VISIBLE
 10
3.599823945115641
 20
1.33552049632788
 30
0.125
  0
VERTEX
  5
10000207
  8
VISIBLE
 10
3.543860671113442
 20
1.339559405264515
 30
0.125
  0
VERTEX
  5
10000208
  8
VISIBLE
 10
3.475669224438316
 20
1.342874052166899
 30
0.125
  0
VERTEX
  5
10000209
  8
VISIBLE
 10
3.397870164143786
 20
1.34533705701345
 30
0.125
  0
VERTEX
  5
1000020A
  8
VISIBLE
 10
3.313453264486753
 20
1.346853767909184
 30
0.125
  0
VERTEX
  5
1000020B
  8
VISIBLE
 10
3.225662619579495
 20
1.347365898504958
 30
0.125
  0
VERTEX
  5
1000020C
  8
VISIBLE
 10
3.137871974672237
 20
1.346853767909184
 30
0.125
  0
VERTEX
  5
1000020D
  8
VISIBLE
 10
3.053455075015205
 20
1.34533705701345
 30
0.125
  0
VERTEX
  5
1000020E
  8
VISIBLE
 10
2.975656014720674
 20
1.3428740521669
 30
0.125
  0
VERTEX
  5
1000020F
  8
VISIBLE
 10
2.907464568045548
 20
1.339559405264515
 30
0.125
  0
VERTEX
  5
10000210
  8
VISIBLE
 10
2.85150129404335
 20
1.33552049632788
 30
0.125
  0
VERTEX
  5
10000211
  8
VISIBLE
 10
2.809916829949416
 20
1.330912538362383
 30
0.125
  0
VERTEX
  5
10000212
  8
VISIBLE
 10
2.784309243398041
 20
1.325912612608467
 30
0.125
  0
VERTEX
  5
10000213
  8
VISIBLE
 10
2.775662619579495
 20
1.320712863408862
 30
0.125
  0
VERTEX
  5
10000214
  8
VISIBLE
 10
2.784309243398041
 20
1.315513114209258
 30
0.125
  0
VERTEX
  5
10000215
  8
VISIBLE
 10
2.809916829949416
 20
1.310513188455341
 30
0.125
  0
VERTEX
  5
10000216
  8
VISIBLE
 10
2.85150129404335
 20
1.305905230489844
 30
0.125
  0
VERTEX
  5
10000217
  8
VISIBLE
 10
2.907464568045549
 20
1.30186632155321
 30
0.125
  0
VERTEX
  5
10000218
  8
VISIBLE
 10
2.975656014720674
 20
1.298551674650825
 30
0.125
  0
VERTEX
  5
10000219
  8
VISIBLE
 10
3.053455075015205
 20
1.296088669804274
 30
0.125
  0
VERTEX
  5
1000021A
  8
VISIBLE
 10
3.137871974672238
 20
1.29457195890854
 30
0.125
  0
VERTEX
  5
1000021B
  8
VISIBLE
 10
3.225662619579496
 20
1.294059828312766
 30
0.125
  0
VERTEX
  5
1000021C
  8
VISIBLE
 10
3.313453264486754
 20
1.29457195890854
 30
0.125
  0
VERTEX
  5
1000021D
  8
VISIBLE
 10
3.397870164143787
 20
1.296088669804274
 30
0.125
  0
VERTEX
  5
1000021E
  8
VISIBLE
 10
3.475669224438318
 20
1.298551674650825
 30
0.125
  0
VERTEX
  5
1000021F
  8
VISIBLE
 10
3.543860671113443
 20
1.30186632155321
 30
0.125
  0
VERTEX
  5
10000220
  8
VISIBLE
 10
3.599823945115642
 20
1.305905230489845
 30
0.125
  0
VERTEX
  5
10000221
  8
VISIBLE
 10
3.641408409209575
 20
1.310513188455341
 30
0.125
  0
VERTEX
  5
10000222
  8
VISIBLE
 10
3.667015995760949
 20
1.315513114209258
 30
0.125
  0
SEQEND
  5
10000236
  8
VISIBLE
  0
ENDSEC
  0
EOF
